<svg
    viewBox="0 0 60 30"
    fill="none"
    xmlns="http://www.w3.org/2000/svg"
    >
    <path
        d="M5.55 27H1.89V12.18H5.28L5.58 14.1C6.51 12.6 8.31 11.73 10.32 11.73C14.04 11.73 15.96 14.04 15.96 17.88V27H12.3V18.75C12.3 16.26 11.07 15.06 9.18 15.06C6.93 15.06 5.55 16.62 5.55 19.02V27ZM17.186 19.56C17.186 14.94 20.516 11.76 25.106 11.76C29.696 11.76 33.026 14.94 33.026 19.56C33.026 24.18 29.696 27.36 25.106 27.36C20.516 27.36 17.186 24.18 17.186 19.56ZM20.846 19.56C20.846 22.26 22.586 24.09 25.106 24.09C27.626 24.09 29.366 22.26 29.366 19.56C29.366 16.86 27.626 15.03 25.106 15.03C22.586 15.03 20.846 16.86 20.846 19.56ZM38.8371 27.39C35.6871 27.39 33.7671 25.56 33.7671 22.77C33.7671 20.04 35.7471 18.33 39.2571 18.06L43.6971 17.73V17.4C43.6971 15.39 42.4971 14.58 40.6371 14.58C38.4771 14.58 37.2771 15.48 37.2771 17.04H34.1571C34.1571 13.83 36.7971 11.73 40.8171 11.73C44.8071 11.73 47.2671 13.89 47.2671 18V27H44.0571L43.7871 24.81C43.1571 26.34 41.1471 27.39 38.8371 27.39ZM40.0371 24.63C42.2871 24.63 43.7271 23.28 43.7271 21V20.22L40.6371 20.46C38.3571 20.67 37.4871 21.42 37.4871 22.62C37.4871 23.97 38.3871 24.63 40.0371 24.63ZM58.6627 12.12V15.51H57.3127C54.6727 15.51 53.0227 16.92 53.0227 19.8V27H49.3627V12.21H52.8127L53.0227 14.37C53.6527 12.9 55.0627 11.91 57.0427 11.91C57.5527 11.91 58.0627 11.97 58.6627 12.12Z"
        fill="currentColor"
    />
    <circle cx="25.7652" cy="19.1744" r="5.40385" fill="currentColor" />
</svg>