<svg viewBox="0 0 24 24" fill="none" xmlns="http://www.w3.org/2000/svg">
<path d="M11.9998 12.9995C12.552 12.9995 12.9998 12.5518 12.9998 11.9995C12.9998 11.4472 12.552 10.9995 11.9998 10.9995C11.4475 10.9995 10.9998 11.4472 10.9998 11.9995C10.9998 12.5518 11.4475 12.9995 11.9998 12.9995Z" stroke="currentColor" stroke-width="2" stroke-linecap="round" stroke-linejoin="round"/>
<path d="M18.9995 12.9995C19.5518 12.9995 19.9995 12.5518 19.9995 11.9995C19.9995 11.4472 19.5518 10.9995 18.9995 10.9995C18.4472 10.9995 17.9995 11.4472 17.9995 11.9995C17.9995 12.5518 18.4472 12.9995 18.9995 12.9995Z" stroke="currentColor" stroke-width="2" stroke-linecap="round" stroke-linejoin="round"/>
<path d="M4.99976 12.9995C5.55204 12.9995 5.99976 12.5518 5.99976 11.9995C5.99976 11.4472 5.55204 10.9995 4.99976 10.9995C4.44747 10.9995 3.99976 11.4472 3.99976 11.9995C3.99976 12.5518 4.44747 12.9995 4.99976 12.9995Z" stroke="currentColor" stroke-width="2" stroke-linecap="round" stroke-linejoin="round"/>
</svg>
