<svg viewBox="0 0 393 244" fill="none" xmlns="http://www.w3.org/2000/svg">
<mask id="path-1-outside-1_2964_4541" maskUnits="userSpaceOnUse" x="62" y="39.6359" width="276" height="78" fill="black">
<rect fill="white" x="62" y="39.6359" width="276" height="78"/>
<path d="M80.1375 114.636H62.4475V43.0059H78.8325L80.2825 52.2859C82.5058 48.7092 85.6475 45.9059 89.7075 43.8759C93.8642 41.8459 98.3592 40.8309 103.193 40.8309C112.183 40.8309 118.949 43.4892 123.493 48.8059C128.133 54.1225 130.453 61.3725 130.453 70.5559V114.636H112.763V74.7609C112.763 68.7675 111.409 64.3209 108.703 61.4209C105.996 58.4242 102.323 56.9259 97.6825 56.9259C92.1725 56.9259 87.8708 58.6659 84.7775 62.1459C81.6842 65.6259 80.1375 70.2659 80.1375 76.0659V114.636ZM136.378 78.6759C136.378 71.2325 138.022 64.7075 141.308 59.1009C144.595 53.3975 149.138 48.9509 154.938 45.7609C160.738 42.5709 167.312 40.9759 174.658 40.9759C182.102 40.9759 188.675 42.5709 194.378 45.7609C200.178 48.9509 204.722 53.3975 208.008 59.1009C211.295 64.7075 212.938 71.2325 212.938 78.6759C212.938 86.1192 211.295 92.6925 208.008 98.3959C204.722 104.003 200.178 108.401 194.378 111.591C188.675 114.781 182.102 116.376 174.658 116.376C167.312 116.376 160.738 114.781 154.938 111.591C149.138 108.401 144.595 104.003 141.308 98.3959C138.022 92.6925 136.378 86.1192 136.378 78.6759ZM154.068 78.6759C154.068 83.0259 154.938 86.8442 156.678 90.1309C158.515 93.4175 160.932 95.9792 163.928 97.8159C167.022 99.6525 170.598 100.571 174.658 100.571C178.718 100.571 182.295 99.6525 185.388 97.8159C188.482 95.9792 190.898 93.4175 192.638 90.1309C194.378 86.8442 195.248 83.0259 195.248 78.6759C195.248 74.2292 194.378 70.4109 192.638 67.2209C190.898 63.9342 188.482 61.3725 185.388 59.5359C182.295 57.6992 178.718 56.7809 174.658 56.7809C170.598 56.7809 167.022 57.6992 163.928 59.5359C160.932 61.3725 158.515 63.9342 156.678 67.2209C154.938 70.4109 154.068 74.2292 154.068 78.6759ZM241.025 116.521C233.485 116.521 227.492 114.491 223.045 110.431C218.695 106.274 216.52 100.861 216.52 94.1909C216.52 87.6175 218.792 82.3975 223.335 78.5309C227.975 74.5675 234.549 72.2475 243.055 71.5709L264.515 69.8309V68.2359C264.515 64.9492 263.887 62.3392 262.63 60.4059C261.47 58.3759 259.779 56.9259 257.555 56.0559C255.332 55.0892 252.722 54.6059 249.725 54.6059C244.505 54.6059 240.494 55.6692 237.69 57.7959C234.887 59.8259 233.485 62.7259 233.485 66.4959H218.405C218.405 61.2759 219.71 56.7809 222.32 53.0109C225.027 49.1442 228.797 46.1475 233.63 44.0209C238.56 41.8942 244.215 40.8309 250.595 40.8309C257.072 40.8309 262.63 41.9909 267.27 44.3109C271.91 46.5342 275.487 49.9175 278 54.4609C280.514 58.9075 281.77 64.4659 281.77 71.1359V114.636H266.255L264.95 104.051C263.404 107.724 260.407 110.721 255.96 113.041C251.61 115.361 246.632 116.521 241.025 116.521ZM246.68 103.181C252.19 103.181 256.54 101.634 259.73 98.5409C263.017 95.4475 264.66 91.1459 264.66 85.6359V81.8659L249.725 83.0259C244.215 83.5092 240.3 84.6692 237.98 86.5059C235.66 88.2459 234.5 90.5659 234.5 93.4659C234.5 96.6559 235.564 99.0725 237.69 100.716C239.817 102.359 242.814 103.181 246.68 103.181ZM336.849 42.7159V59.1009H330.324C323.847 59.1009 318.772 60.8409 315.099 64.3209C311.425 67.7042 309.589 72.8759 309.589 79.8359V114.636H291.899V43.1509H308.574L310.024 57.9409H308.284C309.25 53.2042 311.522 49.3375 315.099 46.3409C318.675 43.3442 323.315 41.8459 329.019 41.8459C330.275 41.8459 331.532 41.8942 332.789 41.9909C334.045 42.0875 335.399 42.3292 336.849 42.7159Z"/>
</mask>
<path d="M80.1375 114.636V114.992H80.4938V114.636H80.1375ZM62.4475 114.636H62.0912V114.992H62.4475V114.636ZM62.4475 43.0059V42.6495H62.0912V43.0059H62.4475ZM78.8325 43.0059L79.1846 42.9509L79.1375 42.6495H78.8325V43.0059ZM80.2825 52.2859L79.9304 52.3409L80.0786 53.2889L80.5851 52.474L80.2825 52.2859ZM89.7075 43.8759L89.5511 43.5557L89.5481 43.5571L89.7075 43.8759ZM123.493 48.8059L123.222 49.0374L123.224 49.0402L123.493 48.8059ZM130.453 114.636V114.992H130.809V114.636H130.453ZM112.763 114.636H112.406V114.992H112.763V114.636ZM108.703 61.4209L108.438 61.6597L108.442 61.664L108.703 61.4209ZM80.1375 114.636V114.28H62.4475V114.636V114.992H80.1375V114.636ZM62.4475 114.636H62.8038V43.0059H62.4475H62.0912V114.636H62.4475ZM62.4475 43.0059V43.3622H78.8325V43.0059V42.6495H62.4475V43.0059ZM78.8325 43.0059L78.4804 43.0609L79.9304 52.3409L80.2825 52.2859L80.6346 52.2309L79.1846 42.9509L78.8325 43.0059ZM80.2825 52.2859L80.5851 52.474C82.771 48.9576 85.861 46.1975 89.8669 44.1946L89.7075 43.8759L89.5481 43.5571C85.434 45.6142 82.2407 48.4608 79.9799 52.0977L80.2825 52.2859ZM89.7075 43.8759L89.8639 44.196C93.9696 42.1909 98.4109 41.1872 103.193 41.1872V40.8309V40.4745C98.3075 40.4745 93.7587 41.5008 89.5511 43.5557L89.7075 43.8759ZM103.193 40.8309V41.1872C112.11 41.1872 118.764 43.8213 123.222 49.0374L123.493 48.8059L123.763 48.5744C119.134 43.1571 112.255 40.4745 103.193 40.4745V40.8309ZM123.493 48.8059L123.224 49.0402C127.792 54.2744 130.096 61.4322 130.096 70.5559H130.453H130.809C130.809 61.3129 128.473 53.9707 123.761 48.5716L123.493 48.8059ZM130.453 70.5559H130.096V114.636H130.453H130.809V70.5559H130.453ZM130.453 114.636V114.28H112.763V114.636V114.992H130.453V114.636ZM112.763 114.636H113.119V74.7609H112.763H112.406V114.636H112.763ZM112.763 74.7609H113.119C113.119 68.7222 111.756 64.1705 108.963 61.1777L108.703 61.4209L108.442 61.664C111.062 64.4712 112.406 68.8128 112.406 74.7609H112.763ZM108.703 61.4209L108.967 61.182C106.182 58.0991 102.407 56.5695 97.6825 56.5695V56.9259V57.2822C102.238 57.2822 105.809 58.7493 108.438 61.6597L108.703 61.4209ZM97.6825 56.9259V56.5695C92.0912 56.5695 87.6846 58.339 84.5112 61.9091L84.7775 62.1459L85.0438 62.3826C88.057 58.9927 92.2538 57.2822 97.6825 57.2822V56.9259ZM84.7775 62.1459L84.5112 61.9091C81.3466 65.4693 79.7812 70.2009 79.7812 76.0659H80.1375H80.4938C80.4938 70.3309 82.0217 65.7824 85.0438 62.3826L84.7775 62.1459ZM80.1375 76.0659H79.7812V114.636H80.1375H80.4938V76.0659H80.1375ZM141.308 59.1009L141.616 59.2811L141.617 59.2788L141.308 59.1009ZM154.938 45.7609L154.767 45.4486L154.767 45.4486L154.938 45.7609ZM194.378 45.7609L194.204 46.0719L194.207 46.0731L194.378 45.7609ZM208.008 59.1009L207.699 59.2788L207.701 59.2811L208.008 59.1009ZM208.008 98.3959L208.316 98.5761L208.317 98.5738L208.008 98.3959ZM194.378 111.591L194.207 111.279L194.204 111.28L194.378 111.591ZM154.938 111.591L154.767 111.903L154.767 111.903L154.938 111.591ZM141.308 98.3959L140.999 98.5738L141.001 98.5761L141.308 98.3959ZM156.678 90.1309L156.363 90.2976L156.367 90.3047L156.678 90.1309ZM163.928 97.8159L163.742 98.1197L163.746 98.1223L163.928 97.8159ZM185.388 97.8159L185.206 97.5095L185.388 97.8159ZM192.638 90.1309L192.323 89.9641L192.323 89.9641L192.638 90.1309ZM192.638 67.2209L192.323 67.3876L192.325 67.3915L192.638 67.2209ZM163.928 59.5359L163.746 59.2294L163.742 59.2321L163.928 59.5359ZM156.678 67.2209L156.367 67.047L156.365 67.0502L156.678 67.2209ZM136.378 78.6759H136.735C136.735 71.2865 138.365 64.8255 141.616 59.2811L141.308 59.1009L141.001 58.9207C137.678 64.5895 136.022 71.1785 136.022 78.6759H136.378ZM141.308 59.1009L141.617 59.2788C144.871 53.6322 149.367 49.2319 155.11 46.0731L154.938 45.7609L154.767 45.4486C148.91 48.6699 144.319 53.1628 141 58.9229L141.308 59.1009ZM154.938 45.7609L155.11 46.0731C160.852 42.9151 167.365 41.3322 174.658 41.3322V40.9759V40.6195C167.258 40.6195 160.625 42.2266 154.767 45.4486L154.938 45.7609ZM174.658 40.9759V41.3322C182.049 41.3322 188.561 42.9155 194.204 46.0719L194.378 45.7609L194.552 45.4499C188.789 42.2262 182.154 40.6195 174.658 40.6195V40.9759ZM194.378 45.7609L194.207 46.0731C199.95 49.2319 204.446 53.6322 207.7 59.2788L208.008 59.1009L208.317 58.9229C204.998 53.1628 200.407 48.6699 194.55 45.4486L194.378 45.7609ZM208.008 59.1009L207.701 59.2811C210.951 64.8255 212.582 71.2865 212.582 78.6759H212.938H213.295C213.295 71.1785 211.639 64.5895 208.316 58.9207L208.008 59.1009ZM212.938 78.6759H212.582C212.582 86.0651 210.951 92.5755 207.7 98.2179L208.008 98.3959L208.317 98.5738C211.639 92.8096 213.295 86.1733 213.295 78.6759H212.938ZM208.008 98.3959L207.701 98.2157C204.447 103.766 199.951 108.119 194.207 111.279L194.378 111.591L194.55 111.903C200.405 108.683 204.996 104.239 208.316 98.5761L208.008 98.3959ZM194.378 111.591L194.204 111.28C188.561 114.436 182.049 116.02 174.658 116.02V116.376V116.732C182.154 116.732 188.789 115.126 194.552 111.902L194.378 111.591ZM174.658 116.376V116.02C167.365 116.02 160.852 114.437 155.11 111.279L154.938 111.591L154.767 111.903C160.625 115.125 167.258 116.732 174.658 116.732V116.376ZM154.938 111.591L155.11 111.279C149.365 108.119 144.869 103.766 141.616 98.2157L141.308 98.3959L141.001 98.5761C144.321 104.239 148.911 108.683 154.767 111.903L154.938 111.591ZM141.308 98.3959L141.617 98.2179C138.365 92.5755 136.735 86.0651 136.735 78.6759H136.378H136.022C136.022 86.1733 137.678 92.8096 141 98.5738L141.308 98.3959ZM154.068 78.6759H153.712C153.712 83.0741 154.592 86.9515 156.363 90.2976L156.678 90.1309L156.993 89.9641C155.285 86.7369 154.425 82.9776 154.425 78.6759H154.068ZM156.678 90.1309L156.367 90.3047C158.231 93.6407 160.69 96.2488 163.742 98.1197L163.928 97.8159L164.114 97.5121C161.174 95.7096 158.798 93.1943 156.989 89.957L156.678 90.1309ZM163.928 97.8159L163.746 98.1223C166.902 99.9957 170.543 100.927 174.658 100.927V100.571V100.215C170.654 100.215 167.142 99.3094 164.11 97.5095L163.928 97.8159ZM174.658 100.571V100.927C178.774 100.927 182.415 99.9957 185.57 98.1223L185.388 97.8159L185.206 97.5095C182.175 99.3094 178.663 100.215 174.658 100.215V100.571ZM185.388 97.8159L185.57 98.1223C188.722 96.251 191.184 93.6401 192.953 90.2976L192.638 90.1309L192.323 89.9641C190.613 93.195 188.241 95.7074 185.206 97.5095L185.388 97.8159ZM192.638 90.1309L192.953 90.2976C194.725 86.9515 195.605 83.0741 195.605 78.6759H195.248H194.892C194.892 82.9776 194.032 86.7369 192.323 89.9641L192.638 90.1309ZM195.248 78.6759H195.605C195.605 74.1828 194.725 70.3031 192.951 67.0502L192.638 67.2209L192.325 67.3915C194.031 70.5187 194.892 74.2756 194.892 78.6759H195.248ZM192.638 67.2209L192.953 67.0541C191.184 63.7116 188.722 61.1007 185.57 59.2295L185.388 59.5359L185.206 59.8423C188.241 61.6443 190.613 64.1568 192.323 67.3876L192.638 67.2209ZM185.388 59.5359L185.57 59.2295C182.415 57.3561 178.774 56.4245 174.658 56.4245V56.7809V57.1372C178.663 57.1372 182.175 58.0423 185.206 59.8423L185.388 59.5359ZM174.658 56.7809V56.4245C170.543 56.4245 166.902 57.3561 163.746 59.2295L163.928 59.5359L164.11 59.8423C167.142 58.0423 170.654 57.1372 174.658 57.1372V56.7809ZM163.928 59.5359L163.742 59.2321C160.69 61.1029 158.231 63.711 156.367 67.047L156.678 67.2209L156.989 67.3947C158.798 64.1574 161.174 61.6422 164.114 59.8397L163.928 59.5359ZM156.678 67.2209L156.365 67.0502C154.591 70.3031 153.712 74.1828 153.712 78.6759H154.068H154.425C154.425 74.2756 155.285 70.5187 156.991 67.3915L156.678 67.2209ZM223.045 110.431L222.799 110.689L222.805 110.694L223.045 110.431ZM223.335 78.5309L223.566 78.8022L223.567 78.8018L223.335 78.5309ZM243.055 71.5709L243.083 71.9261L243.084 71.926L243.055 71.5709ZM264.515 69.8309L264.544 70.186L264.872 70.1595V69.8309H264.515ZM262.63 60.4059L262.321 60.5827L262.326 60.5915L262.331 60.6001L262.63 60.4059ZM257.555 56.0559L257.413 56.3829L257.425 56.3877L257.555 56.0559ZM237.69 57.7959L237.899 58.0845L237.906 58.0797L237.69 57.7959ZM233.485 66.4959V66.8522H233.842V66.4959H233.485ZM218.405 66.4959H218.049V66.8522H218.405V66.4959ZM222.32 53.0109L222.028 52.8065L222.027 52.808L222.32 53.0109ZM233.63 44.0209L233.489 43.6937L233.487 43.6947L233.63 44.0209ZM267.27 44.3109L267.111 44.6296L267.116 44.6322L267.27 44.3109ZM278 54.4609L277.688 54.6334L277.69 54.6362L278 54.4609ZM281.77 114.636V114.992H282.127V114.636H281.77ZM266.255 114.636L265.902 114.679L265.94 114.992H266.255V114.636ZM264.95 104.051L265.304 104.007L265.14 102.681L264.622 103.913L264.95 104.051ZM255.96 113.041L255.795 112.725L255.793 112.726L255.96 113.041ZM259.73 98.5409L259.486 98.2814L259.482 98.2851L259.73 98.5409ZM264.66 81.8659H265.017V81.4808L264.633 81.5106L264.66 81.8659ZM249.725 83.0259L249.698 82.6706L249.694 82.6709L249.725 83.0259ZM237.98 86.5059L238.194 86.791L238.201 86.7852L237.98 86.5059ZM237.69 100.716L237.472 100.998L237.472 100.998L237.69 100.716ZM241.025 116.521V116.165C233.551 116.165 227.651 114.154 223.285 110.168L223.045 110.431L222.805 110.694C227.333 114.828 233.42 116.877 241.025 116.877V116.521ZM223.045 110.431L223.291 110.173C219.02 106.091 216.877 100.775 216.877 94.1909H216.52H216.164C216.164 100.947 218.371 106.457 222.799 110.688L223.045 110.431ZM216.52 94.1909H216.877C216.877 87.71 219.111 82.5938 223.566 78.8022L223.335 78.5309L223.104 78.2595C218.473 82.2013 216.164 87.5251 216.164 94.1909H216.52ZM223.335 78.5309L223.567 78.8018C228.131 74.9033 234.623 72.5991 243.083 71.9261L243.055 71.5709L243.027 71.2157C234.474 71.896 227.82 74.2318 223.104 78.2599L223.335 78.5309ZM243.055 71.5709L243.084 71.926L264.544 70.186L264.515 69.8309L264.486 69.4757L243.026 71.2157L243.055 71.5709ZM264.515 69.8309H264.872V68.2359H264.515H264.159V69.8309H264.515ZM264.515 68.2359H264.872C264.872 64.9082 264.236 62.2225 262.929 60.2117L262.63 60.4059L262.331 60.6001C263.538 62.4559 264.159 64.9902 264.159 68.2359H264.515ZM262.63 60.4059L262.94 60.2291C261.738 58.1268 259.982 56.623 257.685 55.724L257.555 56.0559L257.425 56.3877C259.575 57.2287 261.202 58.6249 262.321 60.5827L262.63 60.4059ZM257.555 56.0559L257.697 55.7291C255.42 54.7389 252.76 54.2495 249.725 54.2495V54.6059V54.9622C252.684 54.9622 255.244 55.4395 257.413 56.3826L257.555 56.0559ZM249.725 54.6059V54.2495C244.463 54.2495 240.364 55.3204 237.475 57.512L237.69 57.7959L237.906 58.0797C240.623 56.018 244.547 54.9622 249.725 54.9622V54.6059ZM237.69 57.7959L237.481 57.5073C234.576 59.6109 233.129 62.6235 233.129 66.4959H233.485H233.842C233.842 62.8282 235.198 60.0408 237.899 58.0845L237.69 57.7959ZM233.485 66.4959V66.1395H218.405V66.4959V66.8522H233.485V66.4959ZM218.405 66.4959H218.762C218.762 61.338 220.05 56.9161 222.613 53.2137L222.32 53.0109L222.027 52.808C219.37 56.6456 218.049 61.2138 218.049 66.4959H218.405ZM222.32 53.0109L222.612 53.2152C225.277 49.4081 228.993 46.4506 233.774 44.347L233.63 44.0209L233.487 43.6947C228.601 45.8444 224.777 48.8803 222.028 52.8065L222.32 53.0109ZM233.63 44.0209L233.771 44.348C238.649 42.2439 244.255 41.1872 250.595 41.1872V40.8309V40.4745C244.176 40.4745 238.471 41.5445 233.489 43.6937L233.63 44.0209ZM250.595 40.8309V41.1872C257.03 41.1872 262.531 42.3397 267.111 44.6296L267.27 44.3109L267.43 43.9921C262.729 41.642 257.114 40.4745 250.595 40.4745V40.8309ZM267.27 44.3109L267.116 44.6322C271.689 46.8232 275.211 50.1542 277.688 54.6333L278 54.4609L278.312 54.2884C275.763 49.6809 272.132 46.2452 267.424 43.9895L267.27 44.3109ZM278 54.4609L277.69 54.6362C280.165 59.0154 281.414 64.509 281.414 71.1359H281.77H282.127C282.127 64.4227 280.862 58.7996 278.31 54.2855L278 54.4609ZM281.77 71.1359H281.414V114.636H281.77H282.127V71.1359H281.77ZM281.77 114.636V114.28H266.255V114.636V114.992H281.77V114.636ZM266.255 114.636L266.609 114.592L265.304 104.007L264.95 104.051L264.597 104.094L265.902 114.679L266.255 114.636ZM264.95 104.051L264.622 103.913C263.115 107.491 260.188 110.433 255.795 112.725L255.96 113.041L256.125 113.357C260.626 111.009 263.692 107.957 265.279 104.189L264.95 104.051ZM255.96 113.041L255.793 112.726C251.501 115.015 246.581 116.165 241.025 116.165V116.521V116.877C246.682 116.877 251.72 115.706 256.128 113.355L255.96 113.041ZM246.68 103.181V103.537C252.259 103.537 256.707 101.969 259.978 98.7967L259.73 98.5409L259.482 98.2851C256.374 101.299 252.121 102.825 246.68 102.825V103.181ZM259.73 98.5409L259.974 98.8003C263.348 95.6252 265.017 91.2208 265.017 85.6359H264.66H264.304C264.304 91.0709 262.686 95.2699 259.486 98.2814L259.73 98.5409ZM264.66 85.6359H265.017V81.8659H264.66H264.304V85.6359H264.66ZM264.66 81.8659L264.633 81.5106L249.698 82.6706L249.725 83.0259L249.753 83.3811L264.688 82.2211L264.66 81.8659ZM249.725 83.0259L249.694 82.6709C244.166 83.1558 240.163 84.323 237.759 86.2265L237.98 86.5059L238.201 86.7852C240.437 85.0154 244.264 83.8626 249.756 83.3808L249.725 83.0259ZM237.98 86.5059L237.766 86.2208C235.357 88.0281 234.144 90.4537 234.144 93.4659H234.5H234.857C234.857 90.678 235.964 88.4636 238.194 86.7909L237.98 86.5059ZM234.5 93.4659H234.144C234.144 96.7431 235.242 99.274 237.472 100.998L237.69 100.716L237.908 100.434C235.886 98.871 234.857 96.5687 234.857 93.4659H234.5ZM237.69 100.716L237.472 100.998C239.684 102.706 242.768 103.537 246.68 103.537V103.181V102.825C242.859 102.825 239.95 102.012 237.908 100.434L237.69 100.716ZM336.849 42.7159H337.205V42.4421L336.94 42.3716L336.849 42.7159ZM336.849 59.1009V59.4572H337.205V59.1009H336.849ZM315.099 64.3209L315.34 64.583L315.344 64.5795L315.099 64.3209ZM309.589 114.636V114.992H309.945V114.636H309.589ZM291.899 114.636H291.542V114.992H291.899V114.636ZM291.899 43.1509V42.7945H291.542V43.1509H291.899ZM308.574 43.1509L308.928 43.1161L308.897 42.7945H308.574V43.1509ZM310.024 57.9409V58.2972H310.417L310.378 57.9061L310.024 57.9409ZM308.284 57.9409L307.935 57.8696L307.847 58.2972H308.284V57.9409ZM315.099 46.3409L315.328 46.614L315.328 46.614L315.099 46.3409ZM332.789 41.9909L332.816 41.6356L332.816 41.6356L332.789 41.9909ZM336.849 42.7159H336.492V59.1009H336.849H337.205V42.7159H336.849ZM336.849 59.1009V58.7445H330.324V59.1009V59.4572H336.849V59.1009ZM330.324 59.1009V58.7445C323.782 58.7445 318.61 60.5033 314.854 64.0622L315.099 64.3209L315.344 64.5795C318.934 61.1784 323.912 59.4572 330.324 59.4572V59.1009ZM315.099 64.3209L314.857 64.0588C311.085 67.5328 309.232 72.8167 309.232 79.8359H309.589H309.945C309.945 72.9351 311.765 67.8756 315.34 64.583L315.099 64.3209ZM309.589 79.8359H309.232V114.636H309.589H309.945V79.8359H309.589ZM309.589 114.636V114.28H291.899V114.636V114.992H309.589V114.636ZM291.899 114.636H292.255V43.1509H291.899H291.542V114.636H291.899ZM291.899 43.1509V43.5072H308.574V43.1509V42.7945H291.899V43.1509ZM308.574 43.1509L308.219 43.1856L309.669 57.9756L310.024 57.9409L310.378 57.9061L308.928 43.1161L308.574 43.1509ZM310.024 57.9409V57.5845H308.284V57.9409V58.2972H310.024V57.9409ZM308.284 57.9409L308.633 58.0121C309.584 53.3513 311.815 49.5569 315.328 46.614L315.099 46.3409L314.87 46.0677C311.229 49.1181 308.917 53.0571 307.935 57.8696L308.284 57.9409ZM315.099 46.3409L315.328 46.614C318.827 43.6823 323.38 42.2022 329.019 42.2022V41.8459V41.4895C323.251 41.4895 318.524 43.0061 314.87 46.0677L315.099 46.3409ZM329.019 41.8459V42.2022C330.266 42.2022 331.514 42.2502 332.761 42.3461L332.789 41.9909L332.816 41.6356C331.55 41.5382 330.284 41.4895 329.019 41.4895V41.8459ZM332.789 41.9909L332.761 42.3461C333.993 42.4409 335.324 42.6781 336.757 43.0602L336.849 42.7159L336.94 42.3716C335.473 41.9803 334.098 41.7342 332.816 41.6356L332.789 41.9909Z" fill="#EDEDED" fill-opacity="0.29" mask="url(#path-1-outside-1_2964_4541)"/>
<mask id="path-3-outside-2_2964_4541" maskUnits="userSpaceOnUse" x="11.0986" y="132.011" width="368" height="112" fill="black">
<rect fill="white" x="11.0986" y="132.011" width="368" height="112"/>
<path d="M11.7236 219.261H28.5436C28.6403 222.355 29.8003 224.82 32.0236 226.656C34.247 228.493 37.3403 229.411 41.3036 229.411C45.557 229.411 48.747 228.638 50.8736 227.091C53.097 225.545 54.2086 223.466 54.2086 220.856C54.2086 219.116 53.6286 217.57 52.4686 216.216C51.3086 214.863 49.1336 213.848 45.9436 213.171L33.0386 210.126C26.562 208.676 21.7286 206.356 18.5386 203.166C15.4453 199.88 13.8986 195.385 13.8986 189.681C13.8986 185.041 15.107 181.03 17.5236 177.646C20.037 174.263 23.4203 171.701 27.6736 169.961C31.927 168.125 36.8086 167.206 42.3186 167.206C47.6353 167.206 52.3236 168.173 56.3836 170.106C60.4436 172.04 63.5853 174.746 65.8086 178.226C68.1286 181.706 69.337 185.766 69.4336 190.406H52.6136C52.6136 187.313 51.647 184.896 49.7136 183.156C47.7803 181.32 45.0736 180.401 41.5936 180.401C38.1136 180.401 35.407 181.175 33.4736 182.721C31.5403 184.268 30.5736 186.346 30.5736 188.956C30.5736 192.92 33.667 195.626 39.8536 197.076L52.7586 200.121C58.752 201.475 63.247 203.65 66.2436 206.646C69.337 209.643 70.8836 213.896 70.8836 219.406C70.8836 224.24 69.627 228.445 67.1136 232.021C64.6003 235.501 61.072 238.208 56.5286 240.141C51.9853 241.978 46.7653 242.896 40.8686 242.896C31.9753 242.896 24.8703 240.721 19.5536 236.371C14.3336 232.021 11.7236 226.318 11.7236 219.261ZM69.9978 169.381H115.238V184.171H69.9978V169.381ZM101.463 241.011H83.7728V147.051H101.463V241.011ZM167.705 169.381H185.395V241.011H169.01L167.705 231.441C165.578 234.825 162.388 237.58 158.135 239.706C153.882 241.833 149.338 242.896 144.505 242.896C136.288 242.896 129.86 240.286 125.22 235.066C120.58 229.846 118.26 222.886 118.26 214.186V169.381H135.95V207.951C135.95 214.718 137.255 219.6 139.865 222.596C142.475 225.593 146.245 227.091 151.175 227.091C156.782 227.091 160.938 225.448 163.645 222.161C166.352 218.778 167.705 213.703 167.705 206.936V169.381ZM224.435 242.896C217.475 242.896 211.482 241.35 206.455 238.256C201.525 235.066 197.659 230.668 194.855 225.061C192.149 219.455 190.795 212.93 190.795 205.486C190.795 198.043 192.149 191.47 194.855 185.766C197.659 179.966 201.67 175.423 206.89 172.136C212.11 168.85 218.297 167.206 225.45 167.206C230.477 167.206 235.069 168.221 239.225 170.251C243.382 172.185 246.572 174.94 248.795 178.516V133.131H266.34V241.011H250.1L248.94 229.846C246.814 233.906 243.527 237.096 239.08 239.416C234.73 241.736 229.849 242.896 224.435 242.896ZM228.35 226.656C232.507 226.656 236.084 225.786 239.08 224.046C242.077 222.21 244.397 219.648 246.04 216.361C247.78 212.978 248.65 209.16 248.65 204.906C248.65 200.556 247.78 196.786 246.04 193.596C244.397 190.31 242.077 187.748 239.08 185.911C236.084 183.978 232.507 183.011 228.35 183.011C224.29 183.011 220.762 183.978 217.765 185.911C214.769 187.748 212.449 190.31 210.805 193.596C209.259 196.883 208.485 200.653 208.485 204.906C208.485 209.16 209.259 212.93 210.805 216.216C212.449 219.503 214.769 222.065 217.765 223.901C220.762 225.738 224.29 226.656 228.35 226.656ZM277.526 241.011V169.381H295.216V241.011H277.526ZM286.226 155.026C283.229 155.026 280.667 154.011 278.541 151.981C276.511 149.855 275.496 147.293 275.496 144.296C275.496 141.3 276.511 138.786 278.541 136.756C280.667 134.726 283.229 133.711 286.226 133.711C289.222 133.711 291.736 134.726 293.766 136.756C295.892 138.786 296.956 141.3 296.956 144.296C296.956 147.293 295.892 149.855 293.766 151.981C291.736 154.011 289.222 155.026 286.226 155.026ZM302.037 205.051C302.037 197.608 303.681 191.083 306.967 185.476C310.254 179.773 314.797 175.326 320.597 172.136C326.397 168.946 332.971 167.351 340.317 167.351C347.761 167.351 354.334 168.946 360.037 172.136C365.837 175.326 370.381 179.773 373.667 185.476C376.954 191.083 378.597 197.608 378.597 205.051C378.597 212.495 376.954 219.068 373.667 224.771C370.381 230.378 365.837 234.776 360.037 237.966C354.334 241.156 347.761 242.751 340.317 242.751C332.971 242.751 326.397 241.156 320.597 237.966C314.797 234.776 310.254 230.378 306.967 224.771C303.681 219.068 302.037 212.495 302.037 205.051ZM319.727 205.051C319.727 209.401 320.597 213.22 322.337 216.506C324.174 219.793 326.591 222.355 329.587 224.191C332.681 226.028 336.257 226.946 340.317 226.946C344.377 226.946 347.954 226.028 351.047 224.191C354.141 222.355 356.557 219.793 358.297 216.506C360.037 213.22 360.907 209.401 360.907 205.051C360.907 200.605 360.037 196.786 358.297 193.596C356.557 190.31 354.141 187.748 351.047 185.911C347.954 184.075 344.377 183.156 340.317 183.156C336.257 183.156 332.681 184.075 329.587 185.911C326.591 187.748 324.174 190.31 322.337 193.596C320.597 196.786 319.727 200.605 319.727 205.051Z"/>
</mask>
<path d="M11.7236 219.261V218.905H11.3673V219.261H11.7236ZM28.5436 219.261L28.8998 219.25L28.889 218.905H28.5436V219.261ZM50.8736 227.091L50.6701 226.799L50.6641 226.803L50.8736 227.091ZM52.4686 216.216L52.7392 215.984L52.7392 215.984L52.4686 216.216ZM45.9436 213.171L45.8618 213.518L45.8697 213.52L45.9436 213.171ZM33.0386 210.126L33.1205 209.779L33.1165 209.779L33.0386 210.126ZM18.5386 203.166L18.279 203.411L18.2867 203.418L18.5386 203.166ZM17.5236 177.646L17.2375 177.434L17.2337 177.439L17.5236 177.646ZM27.6736 169.961L27.8086 170.291L27.8149 170.288L27.6736 169.961ZM56.3836 170.106L56.5368 169.785L56.5368 169.785L56.3836 170.106ZM65.8086 178.226L65.5083 178.418L65.5122 178.424L65.8086 178.226ZM69.4336 190.406V190.763H69.7975L69.7899 190.399L69.4336 190.406ZM52.6136 190.406H52.2573V190.763H52.6136V190.406ZM49.7136 183.156L49.4681 183.415L49.4753 183.421L49.7136 183.156ZM33.4736 182.721L33.6962 182.999L33.6962 182.999L33.4736 182.721ZM39.8536 197.076L39.9355 196.729L39.9349 196.729L39.8536 197.076ZM52.7586 200.121L52.6768 200.468L52.6802 200.469L52.7586 200.121ZM66.2436 206.646L65.9916 206.898L65.9957 206.902L66.2436 206.646ZM67.1136 232.021L67.4025 232.23L67.4052 232.226L67.1136 232.021ZM56.5286 240.141L56.6622 240.472L56.6682 240.469L56.5286 240.141ZM19.5536 236.371L19.3255 236.645L19.328 236.647L19.5536 236.371ZM11.7236 219.261V219.618H28.5436V219.261V218.905H11.7236V219.261ZM28.5436 219.261L28.1875 219.272C28.2871 222.46 29.4881 225.024 31.7967 226.931L32.0236 226.656L32.2506 226.382C30.1125 224.615 28.9935 222.25 28.8998 219.25L28.5436 219.261ZM32.0236 226.656L31.7967 226.931C34.1042 228.837 37.2883 229.768 41.3036 229.768V229.411V229.055C37.3923 229.055 34.3897 228.149 32.2506 226.382L32.0236 226.656ZM41.3036 229.411V229.768C45.5896 229.768 48.8684 228.99 51.0832 227.379L50.8736 227.091L50.6641 226.803C48.6256 228.286 45.5244 229.055 41.3036 229.055V229.411ZM50.8736 227.091L51.0771 227.384C53.3919 225.773 54.565 223.588 54.565 220.856H54.2086H53.8523C53.8523 223.344 52.802 225.316 50.6701 226.799L50.8736 227.091ZM54.2086 220.856H54.565C54.565 219.029 53.9531 217.401 52.7392 215.984L52.4686 216.216L52.1981 216.448C53.3042 217.739 53.8523 219.204 53.8523 220.856H54.2086ZM52.4686 216.216L52.7392 215.984C51.5007 214.539 49.2286 213.504 46.0176 212.823L45.9436 213.171L45.8697 213.52C49.0387 214.192 51.1166 215.186 52.1981 216.448L52.4686 216.216ZM45.9436 213.171L46.0255 212.824L33.1205 209.779L33.0386 210.126L32.9568 210.473L45.8618 213.518L45.9436 213.171ZM33.0386 210.126L33.1165 209.779C26.6765 208.337 21.9153 206.039 18.7906 202.914L18.5386 203.166L18.2867 203.418C21.5419 206.673 26.4474 209.016 32.9608 210.474L33.0386 210.126ZM18.5386 203.166L18.7981 202.922C15.7822 199.718 14.255 195.319 14.255 189.681H13.8986H13.5423C13.5423 195.45 15.1084 200.042 18.2792 203.41L18.5386 203.166ZM13.8986 189.681H14.255C14.255 185.106 15.445 181.169 17.8136 177.853L17.5236 177.646L17.2337 177.439C14.7689 180.89 13.5423 184.976 13.5423 189.681H13.8986ZM17.5236 177.646L17.8097 177.859C20.2808 174.532 23.6097 172.009 27.8086 170.291L27.6736 169.961L27.5387 169.631C23.2309 171.394 19.7931 173.994 17.2376 177.434L17.5236 177.646ZM27.6736 169.961L27.8149 170.288C32.016 168.474 36.8482 167.563 42.3186 167.563V167.206V166.85C36.7691 166.85 31.8379 167.775 27.5324 169.634L27.6736 169.961ZM42.3186 167.206V167.563C47.5919 167.563 52.2262 168.521 56.2304 170.428L56.3836 170.106L56.5368 169.785C52.421 167.825 47.6787 166.85 42.3186 166.85V167.206ZM56.3836 170.106L56.2304 170.428C60.2358 172.335 63.3241 174.999 65.5084 178.418L65.8086 178.226L66.1089 178.034C63.8465 174.493 60.6515 171.744 56.5368 169.785L56.3836 170.106ZM65.8086 178.226L65.5122 178.424C67.7905 181.841 68.982 185.834 69.0774 190.414L69.4336 190.406L69.7899 190.399C69.692 185.699 68.4668 181.571 66.1051 178.029L65.8086 178.226ZM69.4336 190.406V190.05H52.6136V190.406V190.763H69.4336V190.406ZM52.6136 190.406H52.97C52.97 187.233 51.9747 184.712 49.952 182.891L49.7136 183.156L49.4753 183.421C51.3193 185.081 52.2573 187.393 52.2573 190.406H52.6136ZM49.7136 183.156L49.9591 182.898C47.9412 180.981 45.1362 180.045 41.5936 180.045V180.401V180.758C45.0111 180.758 47.6194 181.658 49.4682 183.415L49.7136 183.156ZM41.5936 180.401V180.045C38.0649 180.045 35.2688 180.829 33.251 182.443L33.4736 182.721L33.6962 182.999C35.5451 181.52 38.1623 180.758 41.5936 180.758V180.401ZM33.4736 182.721L33.251 182.443C31.228 184.061 30.2173 186.245 30.2173 188.956H30.5736H30.93C30.93 186.448 31.8526 184.474 33.6962 182.999L33.4736 182.721ZM30.5736 188.956H30.2173C30.2173 191.045 31.0383 192.809 32.659 194.227C34.2671 195.634 36.6504 196.691 39.7723 197.423L39.8536 197.076L39.9349 196.729C36.8702 196.011 34.6135 194.99 33.1283 193.691C31.6557 192.402 30.93 190.831 30.93 188.956H30.5736ZM39.8536 197.076L39.7718 197.423L52.6768 200.468L52.7586 200.121L52.8405 199.774L39.9355 196.729L39.8536 197.076ZM52.7586 200.121L52.6802 200.469C58.6357 201.814 63.0595 203.966 65.9917 206.898L66.2436 206.646L66.4956 206.394C63.4345 203.333 58.8682 201.136 52.8371 199.774L52.7586 200.121ZM66.2436 206.646L65.9957 206.902C69.0017 209.814 70.5273 213.964 70.5273 219.406H70.8836H71.24C71.24 213.828 69.6722 209.472 66.4916 206.39L66.2436 206.646ZM70.8836 219.406H70.5273C70.5273 224.174 69.2888 228.306 66.8221 231.816L67.1136 232.021L67.4052 232.226C69.9651 228.583 71.24 224.305 71.24 219.406H70.8836ZM67.1136 232.021L66.8248 231.813C64.3548 235.232 60.8819 237.902 56.3891 239.813L56.5286 240.141L56.6682 240.469C61.2621 238.514 64.8458 235.77 67.4025 232.23L67.1136 232.021ZM56.5286 240.141L56.3951 239.811C51.9019 241.627 46.7286 242.54 40.8686 242.54V242.896V243.253C46.802 243.253 52.0687 242.329 56.6622 240.472L56.5286 240.141ZM40.8686 242.896V242.54C32.033 242.54 25.0156 240.38 19.7793 236.095L19.5536 236.371L19.328 236.647C24.725 241.063 31.9176 243.253 40.8686 243.253V242.896ZM19.5536 236.371L19.7818 236.097C14.6465 231.818 12.08 226.217 12.08 219.261H11.7236H11.3673C11.3673 226.419 14.0207 232.224 19.3255 236.645L19.5536 236.371ZM69.9978 169.381V169.025H69.6414V169.381H69.9978ZM115.238 169.381H115.594V169.025H115.238V169.381ZM115.238 184.171V184.528H115.594V184.171H115.238ZM69.9978 184.171H69.6414V184.528H69.9978V184.171ZM101.463 241.011V241.368H101.819V241.011H101.463ZM83.7728 241.011H83.4164V241.368H83.7728V241.011ZM83.7728 147.051V146.695H83.4164V147.051H83.7728ZM101.463 147.051H101.819V146.695H101.463V147.051ZM69.9978 169.381V169.738H115.238V169.381V169.025H69.9978V169.381ZM115.238 169.381H114.881V184.171H115.238H115.594V169.381H115.238ZM115.238 184.171V183.815H69.9978V184.171V184.528H115.238V184.171ZM69.9978 184.171H70.3541V169.381H69.9978H69.6414V184.171H69.9978ZM101.463 241.011V240.655H83.7728V241.011V241.368H101.463V241.011ZM83.7728 241.011H84.1291V147.051H83.7728H83.4164V241.011H83.7728ZM83.7728 147.051V147.408H101.463V147.051V146.695H83.7728V147.051ZM101.463 147.051H101.106V241.011H101.463H101.819V147.051H101.463ZM167.705 169.381V169.025H167.349V169.381H167.705ZM185.395 169.381H185.751V169.025H185.395V169.381ZM185.395 241.011V241.368H185.751V241.011H185.395ZM169.01 241.011L168.657 241.059L168.699 241.368H169.01V241.011ZM167.705 231.441L168.058 231.393L167.926 230.421L167.403 231.252L167.705 231.441ZM125.22 235.066L124.954 235.303L124.954 235.303L125.22 235.066ZM118.26 169.381V169.025H117.904V169.381H118.26ZM135.95 169.381H136.306V169.025H135.95V169.381ZM139.865 222.596L140.134 222.362L140.134 222.362L139.865 222.596ZM163.645 222.161L163.92 222.388L163.923 222.384L163.645 222.161ZM167.705 169.381V169.738H185.395V169.381V169.025H167.705V169.381ZM185.395 169.381H185.039V241.011H185.395H185.751V169.381H185.395ZM185.395 241.011V240.655H169.01V241.011V241.368H185.395V241.011ZM169.01 241.011L169.363 240.963L168.058 231.393L167.705 231.441L167.352 231.489L168.657 241.059L169.01 241.011ZM167.705 231.441L167.403 231.252C165.318 234.57 162.182 237.284 157.976 239.388L158.135 239.706L158.294 240.025C162.595 237.875 165.839 235.079 168.007 231.631L167.705 231.441ZM158.135 239.706L157.976 239.388C153.773 241.489 149.284 242.54 144.505 242.54V242.896V243.253C149.393 243.253 153.991 242.177 158.294 240.025L158.135 239.706ZM144.505 242.896V242.54C136.371 242.54 130.047 239.96 125.486 234.829L125.22 235.066L124.954 235.303C129.673 240.613 136.206 243.253 144.505 243.253V242.896ZM125.22 235.066L125.486 234.829C120.918 229.69 118.616 222.821 118.616 214.186H118.26H117.904C117.904 222.951 120.243 230.003 124.954 235.303L125.22 235.066ZM118.26 214.186H118.616V169.381H118.26H117.904V214.186H118.26ZM118.26 169.381V169.738H135.95V169.381V169.025H118.26V169.381ZM135.95 169.381H135.594V207.951H135.95H136.306V169.381H135.95ZM135.95 207.951H135.594C135.594 214.748 136.902 219.736 139.596 222.83L139.865 222.596L140.134 222.362C137.608 219.463 136.306 214.687 136.306 207.951H135.95ZM139.865 222.596L139.596 222.83C142.29 225.923 146.169 227.448 151.175 227.448V227.091V226.735C146.321 226.735 142.66 225.263 140.134 222.362L139.865 222.596ZM151.175 227.091V227.448C156.852 227.448 161.126 225.781 163.92 222.388L163.645 222.161L163.37 221.935C160.751 225.115 156.711 226.735 151.175 226.735V227.091ZM163.645 222.161L163.923 222.384C166.702 218.91 168.061 213.741 168.061 206.936H167.705H167.349C167.349 213.665 166.002 218.645 163.367 221.939L163.645 222.161ZM167.705 206.936H168.061V169.381H167.705H167.349V206.936H167.705ZM206.455 238.256L206.262 238.555L206.268 238.56L206.455 238.256ZM194.855 225.061L194.534 225.216L194.537 225.221L194.855 225.061ZM194.855 185.766L194.534 185.611L194.533 185.613L194.855 185.766ZM206.89 172.136L206.7 171.835L206.7 171.835L206.89 172.136ZM239.225 170.251L239.069 170.571L239.075 170.574L239.225 170.251ZM248.795 178.516L248.493 178.704L249.152 179.764V178.516H248.795ZM248.795 133.131V132.775H248.439V133.131H248.795ZM266.34 133.131H266.697V132.775H266.34V133.131ZM266.34 241.011V241.368H266.697V241.011H266.34ZM250.1 241.011L249.746 241.048L249.779 241.368H250.1V241.011ZM248.94 229.846L249.295 229.809L249.173 228.635L248.625 229.681L248.94 229.846ZM239.08 239.416L238.915 239.1L238.913 239.102L239.08 239.416ZM239.08 224.046L239.259 224.354L239.266 224.35L239.08 224.046ZM246.04 216.361L245.723 216.198L245.722 216.202L246.04 216.361ZM246.04 193.596L245.721 193.756L245.727 193.767L246.04 193.596ZM239.08 185.911L238.887 186.211L238.894 186.215L239.08 185.911ZM217.765 185.911L217.951 186.215L217.958 186.211L217.765 185.911ZM210.805 193.596L210.486 193.437L210.483 193.445L210.805 193.596ZM210.805 216.216L210.483 216.368L210.487 216.376L210.805 216.216ZM224.435 242.896V242.54C217.529 242.54 211.603 241.006 206.642 237.953L206.455 238.256L206.268 238.56C211.361 241.693 217.421 243.253 224.435 243.253V242.896ZM206.455 238.256L206.649 237.957C201.776 234.804 197.951 230.456 195.174 224.902L194.855 225.061L194.537 225.221C197.366 230.88 201.275 235.328 206.262 238.555L206.455 238.256ZM194.855 225.061L195.176 224.906C192.497 219.357 191.152 212.886 191.152 205.486H190.795H190.439C190.439 212.973 191.8 219.553 194.534 225.216L194.855 225.061ZM190.795 205.486H191.152C191.152 198.086 192.497 191.567 195.177 185.919L194.855 185.766L194.533 185.613C191.8 191.372 190.439 197.999 190.439 205.486H190.795ZM194.855 185.766L195.176 185.921C197.952 180.179 201.919 175.687 207.08 172.438L206.89 172.136L206.7 171.835C201.421 175.159 197.365 179.754 194.534 185.611L194.855 185.766ZM206.89 172.136L207.08 172.438C212.235 169.192 218.353 167.563 225.45 167.563V167.206V166.85C218.241 166.85 211.986 168.507 206.7 171.835L206.89 172.136ZM225.45 167.206V167.563C230.427 167.563 234.965 168.567 239.069 170.571L239.225 170.251L239.382 169.931C235.172 167.875 230.526 166.85 225.45 166.85V167.206ZM239.225 170.251L239.075 170.574C243.175 172.481 246.309 175.192 248.493 178.704L248.795 178.516L249.098 178.328C246.835 174.687 243.589 171.888 239.376 169.928L239.225 170.251ZM248.795 178.516H249.152V133.131H248.795H248.439V178.516H248.795ZM248.795 133.131V133.488H266.34V133.131V132.775H248.795V133.131ZM266.34 133.131H265.984V241.011H266.34H266.697V133.131H266.34ZM266.34 241.011V240.655H250.1V241.011V241.368H266.34V241.011ZM250.1 241.011L250.455 240.974L249.295 229.809L248.94 229.846L248.586 229.883L249.746 241.048L250.1 241.011ZM248.94 229.846L248.625 229.681C246.535 233.67 243.304 236.811 238.915 239.1L239.08 239.416L239.245 239.732C243.75 237.382 247.092 234.142 249.256 230.012L248.94 229.846ZM239.08 239.416L238.913 239.102C234.619 241.392 229.796 242.54 224.435 242.54V242.896V243.253C229.901 243.253 234.841 242.081 239.248 239.731L239.08 239.416ZM228.35 226.656V227.013C232.557 227.013 236.198 226.132 239.259 224.354L239.08 224.046L238.901 223.738C235.969 225.441 232.457 226.3 228.35 226.3V226.656ZM239.08 224.046L239.266 224.35C242.323 222.477 244.687 219.864 246.359 216.521L246.04 216.361L245.722 216.202C244.107 219.432 241.831 221.942 238.894 223.742L239.08 224.046ZM246.04 216.361L246.357 216.524C248.126 213.085 249.007 209.209 249.007 204.906H248.65H248.294C248.294 209.11 247.435 212.871 245.723 216.198L246.04 216.361ZM248.65 204.906H249.007C249.007 200.508 248.127 196.677 246.353 193.426L246.04 193.596L245.727 193.767C247.434 196.895 248.294 200.604 248.294 204.906H248.65ZM246.04 193.596L246.359 193.437C244.687 190.093 242.323 187.481 239.266 185.607L239.08 185.911L238.894 186.215C241.831 188.015 244.107 190.526 245.722 193.756L246.04 193.596ZM239.08 185.911L239.273 185.612C236.21 183.636 232.564 182.655 228.35 182.655V183.011V183.368C232.45 183.368 235.957 184.32 238.887 186.211L239.08 185.911ZM228.35 183.011V182.655C224.231 182.655 220.634 183.636 217.572 185.612L217.765 185.911L217.958 186.211C220.89 184.319 224.349 183.368 228.35 183.368V183.011ZM217.765 185.911L217.579 185.607C214.523 187.481 212.158 190.093 210.487 193.437L210.805 193.596L211.124 193.756C212.739 190.526 215.014 188.015 217.951 186.215L217.765 185.911ZM210.805 193.596L210.483 193.445C208.91 196.786 208.129 200.609 208.129 204.906H208.485H208.842C208.842 200.696 209.607 196.98 211.128 193.748L210.805 193.596ZM208.485 204.906H208.129C208.129 209.203 208.91 213.026 210.483 216.368L210.805 216.216L211.128 216.065C209.607 212.833 208.842 209.116 208.842 204.906H208.485ZM210.805 216.216L210.487 216.376C212.158 219.719 214.523 222.332 217.579 224.205L217.765 223.901L217.951 223.597C215.014 221.797 212.739 219.287 211.124 216.057L210.805 216.216ZM217.765 223.901L217.579 224.205C220.64 226.081 224.235 227.013 228.35 227.013V226.656V226.3C224.346 226.3 220.884 225.395 217.951 223.597L217.765 223.901ZM277.526 241.011H277.169V241.368H277.526V241.011ZM277.526 169.381V169.025H277.169V169.381H277.526ZM295.216 169.381H295.572V169.025H295.216V169.381ZM295.216 241.011V241.368H295.572V241.011H295.216ZM278.541 151.981L278.283 152.227L278.289 152.233L278.295 152.239L278.541 151.981ZM278.541 136.756L278.295 136.498L278.289 136.504L278.541 136.756ZM293.766 136.756L293.514 137.008L293.52 137.014L293.766 136.756ZM293.766 151.981L294.018 152.233L294.018 152.233L293.766 151.981ZM277.526 241.011H277.882V169.381H277.526H277.169V241.011H277.526ZM277.526 169.381V169.738H295.216V169.381V169.025H277.526V169.381ZM295.216 169.381H294.859V241.011H295.216H295.572V169.381H295.216ZM295.216 241.011V240.655H277.526V241.011V241.368H295.216V241.011ZM286.226 155.026V154.67C283.319 154.67 280.846 153.689 278.787 151.723L278.541 151.981L278.295 152.239C280.489 154.334 283.139 155.383 286.226 155.383V155.026ZM278.541 151.981L278.798 151.735C276.833 149.676 275.852 147.203 275.852 144.296H275.496H275.139C275.139 147.383 276.188 150.033 278.283 152.227L278.541 151.981ZM275.496 144.296H275.852C275.852 141.389 276.833 138.968 278.793 137.008L278.541 136.756L278.289 136.504C276.189 138.604 275.139 141.21 275.139 144.296H275.496ZM278.541 136.756L278.787 137.014C280.846 135.049 283.319 134.068 286.226 134.068V133.711V133.355C283.139 133.355 280.489 134.404 278.295 136.498L278.541 136.756ZM286.226 133.711V134.068C289.132 134.068 291.554 135.048 293.514 137.008L293.766 136.756L294.018 136.504C291.918 134.404 289.312 133.355 286.226 133.355V133.711ZM293.766 136.756L293.52 137.014C295.574 138.975 296.599 141.395 296.599 144.296H296.956H297.312C297.312 141.204 296.21 138.597 294.012 136.498L293.766 136.756ZM296.956 144.296H296.599C296.599 147.198 295.574 149.669 293.514 151.729L293.766 151.981L294.018 152.233C296.211 150.04 297.312 147.388 297.312 144.296H296.956ZM293.766 151.981L293.514 151.729C291.554 153.689 289.132 154.67 286.226 154.67V155.026V155.383C289.312 155.383 291.918 154.333 294.018 152.233L293.766 151.981ZM306.967 185.476L307.275 185.656L307.276 185.654L306.967 185.476ZM320.597 172.136L320.426 171.824L320.426 171.824L320.597 172.136ZM360.037 172.136L359.863 172.447L359.866 172.448L360.037 172.136ZM373.667 185.476L373.359 185.654L373.36 185.656L373.667 185.476ZM373.667 224.771L373.975 224.951L373.976 224.949L373.667 224.771ZM360.037 237.966L359.866 237.654L359.863 237.655L360.037 237.966ZM320.597 237.966L320.426 238.278L320.426 238.278L320.597 237.966ZM306.967 224.771L306.659 224.949L306.66 224.951L306.967 224.771ZM322.337 216.506L322.022 216.673L322.026 216.68L322.337 216.506ZM329.587 224.191L329.401 224.495L329.406 224.498L329.587 224.191ZM351.047 224.191L350.866 223.885L351.047 224.191ZM358.297 216.506L357.983 216.34L357.983 216.34L358.297 216.506ZM358.297 193.596L357.982 193.763L357.985 193.767L358.297 193.596ZM329.587 185.911L329.405 185.605L329.401 185.607L329.587 185.911ZM322.337 193.596L322.026 193.422L322.025 193.426L322.337 193.596ZM302.037 205.051H302.394C302.394 197.662 304.025 191.201 307.275 185.656L306.967 185.476L306.66 185.296C303.337 190.965 301.681 197.554 301.681 205.051H302.037ZM306.967 185.476L307.276 185.654C310.53 180.008 315.026 175.607 320.769 172.448L320.597 172.136L320.426 171.824C314.569 175.045 309.978 179.538 306.659 185.298L306.967 185.476ZM320.597 172.136L320.769 172.448C326.511 169.29 333.024 167.708 340.317 167.708V167.351V166.995C332.917 166.995 326.284 168.602 320.426 171.824L320.597 172.136ZM340.317 167.351V167.708C347.708 167.708 354.22 169.291 359.863 172.447L360.037 172.136L360.211 171.825C354.448 168.602 347.813 166.995 340.317 166.995V167.351ZM360.037 172.136L359.866 172.448C365.609 175.607 370.105 180.008 373.359 185.654L373.667 185.476L373.976 185.298C370.657 179.538 366.066 175.045 360.209 171.824L360.037 172.136ZM373.667 185.476L373.36 185.656C376.61 191.201 378.241 197.662 378.241 205.051H378.597H378.954C378.954 197.554 377.298 190.965 373.975 185.296L373.667 185.476ZM378.597 205.051H378.241C378.241 212.44 376.61 218.951 373.359 224.593L373.667 224.771L373.976 224.949C377.298 219.185 378.954 212.549 378.954 205.051H378.597ZM373.667 224.771L373.36 224.591C370.106 230.141 365.61 234.494 359.866 237.654L360.037 237.966L360.209 238.278C366.064 235.058 370.655 230.615 373.975 224.951L373.667 224.771ZM360.037 237.966L359.863 237.655C354.22 240.812 347.708 242.395 340.317 242.395V242.751V243.108C347.813 243.108 354.448 241.501 360.211 238.277L360.037 237.966ZM340.317 242.751V242.395C333.024 242.395 326.511 240.812 320.769 237.654L320.597 237.966L320.426 238.278C326.284 241.5 332.917 243.108 340.317 243.108V242.751ZM320.597 237.966L320.769 237.654C315.024 234.494 310.528 230.141 307.275 224.591L306.967 224.771L306.66 224.951C309.98 230.615 314.57 235.058 320.426 238.278L320.597 237.966ZM306.967 224.771L307.276 224.593C304.025 218.951 302.394 212.44 302.394 205.051H302.037H301.681C301.681 212.549 303.337 219.185 306.659 224.949L306.967 224.771ZM319.727 205.051H319.371C319.371 209.449 320.251 213.327 322.023 216.673L322.337 216.506L322.652 216.34C320.944 213.112 320.084 209.353 320.084 205.051H319.727ZM322.337 216.506L322.026 216.68C323.891 220.016 326.349 222.624 329.401 224.495L329.587 224.191L329.774 223.887C326.833 222.085 324.458 219.57 322.648 216.332L322.337 216.506ZM329.587 224.191L329.406 224.498C332.561 226.371 336.202 227.303 340.317 227.303V226.946V226.59C336.313 226.59 332.801 225.685 329.769 223.885L329.587 224.191ZM340.317 226.946V227.303C344.433 227.303 348.074 226.371 351.229 224.498L351.047 224.191L350.866 223.885C347.834 225.685 344.322 226.59 340.317 226.59V226.946ZM351.047 224.191L351.229 224.498C354.381 222.626 356.843 220.015 358.612 216.673L358.297 216.506L357.983 216.34C356.272 219.57 353.901 222.083 350.866 223.885L351.047 224.191ZM358.297 216.506L358.612 216.673C360.384 213.327 361.264 209.449 361.264 205.051H360.907H360.551C360.551 209.353 359.691 213.112 357.983 216.34L358.297 216.506ZM360.907 205.051H361.264C361.264 200.558 360.385 196.678 358.61 193.426L358.297 193.596L357.985 193.767C359.69 196.894 360.551 200.651 360.551 205.051H360.907ZM358.297 193.596L358.612 193.43C356.843 190.087 354.381 187.476 351.229 185.605L351.047 185.911L350.866 186.218C353.901 188.02 356.272 190.532 357.983 193.763L358.297 193.596ZM351.047 185.911L351.229 185.605C348.074 183.731 344.433 182.8 340.317 182.8V183.156V183.513C344.322 183.513 347.834 184.418 350.866 186.218L351.047 185.911ZM340.317 183.156V182.8C336.202 182.8 332.561 183.731 329.406 185.605L329.587 185.911L329.769 186.218C332.801 184.418 336.313 183.513 340.317 183.513V183.156ZM329.587 185.911L329.401 185.607C326.349 187.478 323.891 190.086 322.026 193.422L322.337 193.596L322.648 193.77C324.458 190.533 326.833 188.018 329.774 186.215L329.587 185.911ZM322.337 193.596L322.025 193.426C320.25 196.678 319.371 200.558 319.371 205.051H319.727H320.084C320.084 200.651 320.945 196.894 322.65 193.767L322.337 193.596Z" fill="#EDEDED" fill-opacity="0.29" mask="url(#path-3-outside-2_2964_4541)"/>
</svg>
