<svg  viewBox="0 0 748 304" fill="none" xmlns="http://www.w3.org/2000/svg">
<g clip-path="url(#clip0_2332_1043)">
<mask id="mask0_2332_1043" style="mask-type:luminance" maskUnits="userSpaceOnUse" x="1" y="0" width="747" height="304">
<path d="M747.203 0.536133H1.20312V303.536H747.203V0.536133Z" fill="white"/>
<path d="M83.6745 302.232H53.6045C43.2712 290.452 34.1778 276.606 26.3245 260.692C18.6778 244.986 12.6845 227.936 8.34453 209.542C4.2112 190.942 2.14453 171.722 2.14453 151.882C2.14453 133.696 4.00453 115.612 7.72453 97.6318C11.6512 79.4451 17.4378 62.1885 25.0845 45.8618C32.7312 29.3285 42.2378 14.6551 53.6045 1.8418H83.6745C75.2012 13.4151 67.6579 27.1584 61.0445 43.0718C54.4312 58.7785 49.2645 75.8285 45.5445 94.2218C42.0312 112.616 40.2745 131.836 40.2745 151.882C40.2745 170.276 41.9279 188.566 45.2345 206.752C48.5412 224.939 53.3978 242.092 59.8045 258.212C66.4178 274.539 74.3745 289.212 83.6745 302.232ZM125.406 243.022H87.5858V89.8818H122.616L125.716 109.722C130.469 102.076 137.186 96.0818 145.866 91.7418C154.752 87.4018 164.362 85.2318 174.696 85.2318C193.916 85.2318 208.382 90.9151 218.096 102.282C228.016 113.649 232.976 129.149 232.976 148.782V243.022H195.156V157.772C195.156 144.959 192.262 135.452 186.476 129.252C180.689 122.846 172.836 119.642 162.916 119.642C151.136 119.642 141.939 123.362 135.326 130.802C128.712 138.242 125.406 148.162 125.406 160.562V243.022ZM245.644 166.142C245.644 150.229 249.158 136.279 256.184 124.292C263.211 112.099 272.924 102.592 285.324 95.7718C297.724 88.9518 311.778 85.5418 327.484 85.5418C343.398 85.5418 357.451 88.9518 369.644 95.7718C382.044 102.592 391.758 112.099 398.784 124.292C405.811 136.279 409.324 150.229 409.324 166.142C409.324 182.056 405.811 196.109 398.784 208.302C391.758 220.289 382.044 229.692 369.644 236.512C357.451 243.332 343.398 246.742 327.484 246.742C311.778 246.742 297.724 243.332 285.324 236.512C272.924 229.692 263.211 220.289 256.184 208.302C249.158 196.109 245.644 182.056 245.644 166.142ZM283.464 166.142C283.464 175.442 285.324 183.606 289.044 190.632C292.971 197.659 298.138 203.136 304.544 207.062C311.158 210.989 318.804 212.952 327.484 212.952C336.164 212.952 343.811 210.989 350.424 207.062C357.038 203.136 362.204 197.659 365.924 190.632C369.644 183.606 371.504 175.442 371.504 166.142C371.504 156.636 369.644 148.472 365.924 141.652C362.204 134.626 357.038 129.149 350.424 125.222C343.811 121.296 336.164 119.332 327.484 119.332C318.804 119.332 311.158 121.296 304.544 125.222C298.138 129.149 292.971 134.626 289.044 141.652C285.324 148.472 283.464 156.636 283.464 166.142ZM469.372 247.052C453.252 247.052 440.439 242.712 430.932 234.032C421.632 225.146 416.982 213.572 416.982 199.312C416.982 185.259 421.839 174.099 431.552 165.832C441.472 157.359 455.526 152.399 473.712 150.952L519.592 147.232V143.822C519.592 136.796 518.249 131.216 515.562 127.082C513.082 122.742 509.466 119.642 504.712 117.782C499.959 115.716 494.379 114.682 487.972 114.682C476.812 114.682 468.236 116.956 462.242 121.502C456.249 125.842 453.252 132.042 453.252 140.102H421.012C421.012 128.942 423.802 119.332 429.382 111.272C435.169 103.006 443.229 96.5985 453.562 92.0518C464.102 87.5051 476.192 85.2318 489.832 85.2318C503.679 85.2318 515.562 87.7118 525.482 92.6718C535.402 97.4251 543.049 104.659 548.422 114.372C553.796 123.879 556.482 135.762 556.482 150.022V243.022H523.312L520.522 220.392C517.216 228.246 510.809 234.652 501.302 239.612C492.002 244.572 481.359 247.052 469.372 247.052ZM481.462 218.532C493.242 218.532 502.542 215.226 509.362 208.612C516.389 201.999 519.902 192.802 519.902 181.022V172.962L487.972 175.442C476.192 176.476 467.822 178.956 462.862 182.882C457.902 186.602 455.422 191.562 455.422 197.762C455.422 204.582 457.696 209.749 462.242 213.262C466.789 216.776 473.196 218.532 481.462 218.532ZM674.236 89.2618V124.292H660.286C646.44 124.292 635.59 128.012 627.736 135.452C619.883 142.686 615.956 153.742 615.956 168.622V243.022H578.136V90.1918H613.786L616.886 121.812H613.166C615.233 111.686 620.09 103.419 627.736 97.0118C635.383 90.6051 645.303 87.4018 657.496 87.4018C660.183 87.4018 662.87 87.5051 665.556 87.7118C668.243 87.9185 671.136 88.4351 674.236 89.2618ZM694.876 302.232H664.806C674.312 289.212 682.269 274.539 688.676 258.212C695.082 242.092 699.939 224.939 703.246 206.752C706.552 188.566 708.206 170.276 708.206 151.882C708.206 131.836 706.346 112.616 702.626 94.2218C699.112 75.8285 694.049 58.7785 687.436 43.0718C681.029 27.1584 673.486 13.4151 664.806 1.8418H694.876C706.242 14.6551 715.749 29.3285 723.396 45.8618C731.042 62.1885 736.726 79.4451 740.446 97.6318C744.372 115.612 746.336 133.696 746.336 151.882C746.336 171.722 744.166 190.942 739.826 209.542C735.692 227.936 729.699 244.986 721.846 260.692C714.199 276.606 705.209 290.452 694.876 302.232Z" fill="black"/>
</mask>
<g mask="url(#mask0_2332_1043)">
<path d="M83.6347 302.231V303.035H85.1969L84.2889 301.764L83.6347 302.231ZM53.5647 302.231L52.9604 302.761L53.2005 303.035H53.5647V302.231ZM26.2847 260.691L25.5619 261.043L25.5638 261.047L26.2847 260.691ZM8.3047 209.541L7.51986 209.716L7.52227 209.726L8.3047 209.541ZM7.6847 97.6311L6.89886 97.4613L6.89745 97.4682L7.6847 97.6311ZM25.0447 45.8611L25.7728 46.2021L25.7744 46.1986L25.0447 45.8611ZM53.5647 1.84103V1.03711H53.2032L52.9633 1.30754L53.5647 1.84103ZM83.6347 1.84103L84.2834 2.31594L85.2197 1.03711H83.6347V1.84103ZM61.0047 43.0711L61.7456 43.3831L61.7471 43.3796L61.0047 43.0711ZM45.5047 94.2211L44.7167 94.0617L44.7151 94.0703L45.5047 94.2211ZM59.7647 258.211L59.0176 258.508L59.0196 258.513L59.7647 258.211ZM83.6347 301.427H53.5647V303.035H83.6347V301.427ZM54.1691 301.701C43.8877 289.98 34.8319 276.194 27.0056 260.336L25.5638 261.047C33.4442 277.015 42.5751 290.922 52.9604 302.761L54.1691 301.701ZM27.0075 260.339C19.3889 244.69 13.4146 227.697 9.08714 209.357L7.52227 209.726C11.8748 228.172 17.8872 245.279 25.5619 261.043L27.0075 260.339ZM9.08948 209.367C4.96939 190.826 2.90863 171.665 2.90863 151.881H1.30078C1.30078 171.778 3.37329 191.056 7.51986 209.716L9.08948 209.367ZM2.90863 151.881C2.90863 133.75 4.76293 115.721 8.47195 97.794L6.89745 97.4682C3.16647 115.501 1.30078 133.639 1.30078 151.881H2.90863ZM8.47052 97.8008C12.3848 79.6713 18.1526 62.4723 25.7728 46.2021L24.3167 45.5201C16.6436 61.9033 10.8379 79.2176 6.89886 97.4613L8.47052 97.8008ZM25.7744 46.1986C33.3902 29.732 42.8547 15.1256 54.1661 2.37452L52.9633 1.30754C41.5413 14.1833 31.9926 28.9236 24.3151 45.5236L25.7744 46.1986ZM53.5647 2.64495H83.6347V1.03711H53.5647V2.64495ZM82.9861 1.36612C74.4683 13.0001 66.8955 26.8016 60.2623 42.7626L61.7471 43.3796C68.3406 27.5138 75.8544 13.8287 84.2834 2.31594L82.9861 1.36612ZM60.2638 42.7591C53.6278 58.5196 48.4463 75.6213 44.7167 94.0617L46.2927 94.3805C50.0032 76.0342 55.155 59.0359 61.7456 43.3831L60.2638 42.7591ZM44.7151 94.0703C41.1916 112.517 39.4308 131.788 39.4308 151.881H41.0386C41.0386 131.882 42.7912 112.712 46.2944 94.3718L44.7151 94.0703ZM39.4308 151.881C39.4308 170.323 41.0885 188.661 44.4038 206.895L45.9857 206.607C42.6876 188.468 41.0386 170.226 41.0386 151.881H39.4308ZM44.4038 206.895C47.7193 225.131 52.5901 242.336 59.0176 258.508L60.5118 257.914C54.126 241.847 49.2834 224.745 45.9857 206.607L44.4038 206.895ZM59.0196 258.513C65.6543 274.892 73.6404 289.622 82.9805 302.699L84.2889 301.764C75.0291 288.8 67.1018 274.183 60.5098 257.909L59.0196 258.513ZM125.366 243.021V243.825H126.17V243.021H125.366ZM87.546 243.021H86.7421V243.825H87.546V243.021ZM87.546 89.8811V89.0772H86.7421V89.8811H87.546ZM122.576 89.8811L123.37 89.757L123.264 89.0772H122.576V89.8811ZM125.676 109.721L124.881 109.845L125.216 111.984L126.358 110.146L125.676 109.721ZM145.826 91.7411L145.473 91.0187L145.466 91.0219L145.826 91.7411ZM218.056 102.281L217.444 102.804L217.45 102.81L218.056 102.281ZM232.936 243.021V243.825H233.74V243.021H232.936ZM195.116 243.021H194.312V243.825H195.116V243.021ZM186.436 129.251L185.839 129.79L185.848 129.8L186.436 129.251ZM125.366 242.217H87.546V243.825H125.366V242.217ZM88.35 243.021V89.8811H86.7421V243.021H88.35ZM87.546 90.685H122.576V89.0772H87.546V90.685ZM121.781 90.0051L124.881 109.845L126.47 109.597L123.37 89.757L121.781 90.0051ZM126.358 110.146C131.027 102.635 137.627 96.7391 146.185 92.4601L145.466 91.0219C136.664 95.423 129.831 101.514 124.993 109.297L126.358 110.146ZM146.178 92.4635C154.95 88.1795 164.439 86.035 174.656 86.035V84.4272C164.206 84.4272 154.474 86.6226 145.473 91.0187L146.178 92.4635ZM174.656 86.035C193.713 86.035 207.925 91.6637 217.444 102.804L218.667 101.759C208.759 90.1651 194.039 84.4272 174.656 84.4272V86.035ZM217.45 102.81C227.208 113.991 232.132 129.283 232.132 148.781H233.74C233.74 129.013 228.744 113.305 218.661 101.753L217.45 102.81ZM232.132 148.781V243.021H233.74V148.781H232.132ZM232.936 242.217H195.116V243.825H232.936V242.217ZM195.92 243.021V157.771H194.312V243.021H195.92ZM195.92 157.771C195.92 144.856 193.005 135.112 187.023 128.703L185.848 129.8C191.439 135.79 194.312 145.06 194.312 157.771H195.92ZM187.032 128.712C181.07 122.111 172.986 118.837 162.876 118.837V120.445C172.606 120.445 180.228 123.578 185.839 129.79L187.032 128.712ZM162.876 118.837C150.912 118.837 141.479 122.624 134.685 130.267L135.887 131.335C142.319 124.099 151.279 120.445 162.876 120.445V118.837ZM134.685 130.267C127.911 137.888 124.562 148.015 124.562 160.561H126.17C126.17 148.308 129.434 138.595 135.887 131.335L134.685 130.267ZM124.562 160.561V243.021H126.17V160.561H124.562ZM256.144 124.291L256.838 124.698L256.841 124.693L256.144 124.291ZM369.604 95.771L369.212 96.4727L369.217 96.4755L369.604 95.771ZM398.744 124.291L398.048 124.693L398.051 124.698L398.744 124.291ZM398.744 208.301L399.438 208.708L399.441 208.703L398.744 208.301ZM369.604 236.511L369.217 235.807L369.212 235.81L369.604 236.511ZM256.144 208.301L255.448 208.703L255.451 208.708L256.144 208.301ZM289.004 190.631L288.294 191.007L288.298 191.016L288.303 191.023L289.004 190.631ZM304.504 207.061L304.084 207.747L304.094 207.753L304.504 207.061ZM365.884 141.651L365.174 142.027L365.179 142.036L365.884 141.651ZM304.504 125.221L304.094 124.53L304.084 124.536L304.504 125.221ZM289.004 141.651L288.303 141.259L288.299 141.266L289.004 141.651ZM246.408 166.141C246.408 150.35 249.894 136.544 256.838 124.698L255.451 123.885C248.342 136.012 244.801 150.106 244.801 166.141H246.408ZM256.841 124.693C263.794 112.627 273.4 103.225 285.672 96.4755L284.897 95.0667C272.369 101.957 262.548 111.568 255.448 123.89L256.841 124.693ZM285.672 96.4755C297.941 89.7277 311.858 86.345 327.444 86.345V84.7372C311.618 84.7372 297.428 88.1745 284.897 95.0667L285.672 96.4755ZM327.444 86.345C343.24 86.345 357.154 89.7287 369.212 96.4727L369.997 95.0695C357.668 88.1735 343.476 84.7372 327.444 84.7372V86.345ZM369.217 96.4755C381.489 103.225 391.095 112.627 398.048 124.693L399.441 123.89C392.341 111.568 382.52 101.957 369.992 95.0667L369.217 96.4755ZM398.051 124.698C404.995 136.544 408.481 150.35 408.481 166.141H410.088C410.088 150.106 406.547 136.012 399.438 123.885L398.051 124.698ZM408.481 166.141C408.481 181.933 404.995 195.844 398.048 207.9L399.441 208.703C406.547 196.372 410.088 182.177 410.088 166.141H408.481ZM398.051 207.895C391.099 219.754 381.492 229.055 369.217 235.807L369.992 237.216C382.516 230.327 392.337 220.822 399.438 208.708L398.051 207.895ZM369.212 235.81C357.154 242.554 343.24 245.937 327.444 245.937V247.545C343.476 247.545 357.668 244.109 369.997 237.213L369.212 235.81ZM327.444 245.937C311.858 245.937 297.941 242.555 285.672 235.807L284.897 237.216C297.428 244.108 311.618 247.545 327.444 247.545V245.937ZM285.672 235.807C273.396 229.055 263.79 219.754 256.838 207.895L255.451 208.708C262.552 220.822 272.372 230.327 284.897 237.216L285.672 235.807ZM256.841 207.9C249.894 195.844 246.408 181.933 246.408 166.141H244.801C244.801 182.177 248.342 196.372 255.448 208.703L256.841 207.9ZM282.621 166.141C282.621 175.55 284.503 183.847 288.294 191.007L289.715 190.255C286.066 183.363 284.228 175.332 284.228 166.141H282.621ZM288.303 191.023C292.292 198.162 297.552 203.743 304.084 207.747L304.925 206.376C298.644 202.526 293.571 197.154 289.706 190.239L288.303 191.023ZM304.094 207.753C310.847 211.762 318.639 213.755 327.444 213.755V212.147C318.89 212.147 311.389 210.214 304.915 206.37L304.094 207.753ZM327.444 213.755C336.25 213.755 344.042 211.762 350.795 207.753L349.974 206.37C343.5 210.214 335.999 212.147 327.444 212.147V213.755ZM350.795 207.753C357.54 203.748 362.808 198.16 366.595 191.007L365.174 190.255C361.521 197.156 356.456 202.521 349.974 206.37L350.795 207.753ZM366.595 191.007C370.386 183.847 372.268 175.55 372.268 166.141H370.661C370.661 175.332 368.823 183.363 365.174 190.255L366.595 191.007ZM372.268 166.141C372.268 156.53 370.388 148.228 366.59 141.266L365.179 142.036C368.821 148.715 370.661 156.739 370.661 166.141H372.268ZM366.595 141.275C362.808 134.122 357.54 128.535 350.795 124.53L349.974 125.913C356.456 129.761 361.521 135.127 365.174 142.027L366.595 141.275ZM350.795 124.53C344.042 120.52 336.25 118.527 327.444 118.527V120.135C335.999 120.135 343.5 122.069 349.974 125.913L350.795 124.53ZM327.444 118.527C318.639 118.527 310.847 120.52 304.094 124.53L304.915 125.913C311.389 122.069 318.89 120.135 327.444 120.135V118.527ZM304.084 124.536C297.552 128.54 292.292 134.121 288.303 141.259L289.706 142.043C293.571 135.128 298.644 129.756 304.925 125.907L304.084 124.536ZM288.299 141.266C284.501 148.228 282.621 156.53 282.621 166.141H284.228C284.228 156.739 286.068 148.715 289.71 142.036L288.299 141.266ZM430.892 234.031L430.337 234.613L430.344 234.619L430.35 234.625L430.892 234.031ZM431.512 165.831L432.033 166.444L432.035 166.443L431.512 165.831ZM473.672 150.951L473.736 151.753H473.737L473.672 150.951ZM519.552 147.231L519.617 148.033L520.356 147.973V147.231H519.552ZM515.522 127.081L514.824 127.48L514.836 127.5L514.848 127.519L515.522 127.081ZM504.672 117.781L504.352 118.519L504.366 118.524L504.379 118.53L504.672 117.781ZM462.202 121.501L462.674 122.152L462.681 122.147L462.688 122.142L462.202 121.501ZM453.212 140.101V140.905H454.016V140.101H453.212ZM420.972 140.101H420.169V140.905H420.972V140.101ZM429.342 111.271L428.684 110.81L428.681 110.814L429.342 111.271ZM453.522 92.0511L453.204 91.3129L453.199 91.3152L453.522 92.0511ZM525.442 92.6711L525.083 93.3902L525.095 93.396L525.442 92.6711ZM548.382 114.371L547.679 114.76L547.683 114.767L548.382 114.371ZM556.442 243.021V243.825H557.246V243.021H556.442ZM523.272 243.021L522.475 243.12L522.562 243.825H523.272V243.021ZM520.482 220.391L521.28 220.293L520.911 217.301L519.742 220.079L520.482 220.391ZM501.262 239.611L500.891 238.899L500.884 238.902L501.262 239.611ZM509.322 208.611L508.771 208.026L508.763 208.034L509.322 208.611ZM519.862 172.961H520.666V172.093L519.8 172.16L519.862 172.961ZM487.932 175.441L487.87 174.64H487.862L487.932 175.441ZM462.822 182.881L463.305 183.524L463.313 183.518L463.321 183.512L462.822 182.881ZM469.332 246.247C453.36 246.247 440.758 241.951 431.434 233.438L430.35 234.625C440.04 243.472 453.065 247.855 469.332 247.855V246.247ZM431.448 233.45C422.325 224.732 417.746 213.378 417.746 199.311H416.139C416.139 213.765 420.86 225.557 430.337 234.613L431.448 233.45ZM417.746 199.311C417.746 185.467 422.519 174.541 432.033 166.444L430.991 165.219C421.079 173.655 416.139 185.049 416.139 199.311H417.746ZM432.035 166.443C441.783 158.115 455.653 153.191 473.736 151.753L473.609 150.15C455.318 151.605 441.082 156.6 430.99 165.22L432.035 166.443ZM473.737 151.753L519.617 148.033L519.487 146.43L473.607 150.15L473.737 151.753ZM520.356 147.231V143.821H518.749V147.231H520.356ZM520.356 143.821C520.356 136.702 518.997 130.951 516.196 126.643L514.848 127.519C517.421 131.478 518.749 136.887 518.749 143.821H520.356ZM516.22 126.682C513.647 122.179 509.886 118.958 504.965 117.033L504.379 118.53C508.966 120.325 512.438 123.303 514.824 127.48L516.22 126.682ZM504.993 117.044C500.118 114.924 494.424 113.877 487.932 113.877V115.485C494.254 115.485 499.721 116.505 504.352 118.519L504.993 117.044ZM487.932 113.877C476.678 113.877 467.903 116.168 461.717 120.861L462.688 122.142C468.489 117.741 476.867 115.485 487.932 115.485V113.877ZM461.731 120.85C455.508 125.356 452.409 131.81 452.409 140.101H454.016C454.016 132.272 456.91 126.326 462.674 122.152L461.731 120.85ZM453.212 139.297H420.972V140.905H453.212V139.297ZM421.776 140.101C421.776 129.081 424.529 119.636 430.003 111.729L428.681 110.814C422.996 119.026 420.169 128.801 420.169 140.101H421.776ZM430.001 111.732C435.694 103.6 443.631 97.2815 453.846 92.7868L453.199 91.3152C442.747 95.9139 434.565 102.409 428.684 110.81L430.001 111.732ZM453.841 92.7893C464.263 88.2933 476.242 86.035 489.792 86.035V84.4272C476.063 84.4272 463.862 86.7155 453.204 91.3129L453.841 92.7893ZM489.792 86.035C503.545 86.035 515.299 88.4982 525.083 93.3902L525.802 91.952C515.746 86.924 503.734 84.4272 489.792 84.4272V86.035ZM525.095 93.396C534.863 98.0764 542.386 105.192 547.679 114.76L549.086 113.982C543.632 104.124 535.862 96.7724 525.79 91.9461L525.095 93.396ZM547.683 114.767C552.97 124.121 555.639 135.859 555.639 150.021H557.246C557.246 135.664 554.542 123.634 549.082 113.976L547.683 114.767ZM555.639 150.021V243.021H557.246V150.021H555.639ZM556.442 242.217H523.272V243.825H556.442V242.217ZM524.07 242.923L521.28 220.293L519.685 220.49L522.475 243.12L524.07 242.923ZM519.742 220.079C516.525 227.719 510.275 234.002 500.891 238.899L501.634 240.324C511.263 235.3 517.827 228.77 521.223 220.703L519.742 220.079ZM500.884 238.902C491.716 243.792 481.205 246.247 469.332 246.247V247.855C481.433 247.855 492.209 245.351 501.641 240.321L500.884 238.902ZM481.422 219.335C493.359 219.335 502.878 215.98 509.882 209.188L508.763 208.034C502.127 214.469 493.046 217.727 481.422 217.727V219.335ZM509.873 209.197C517.096 202.399 520.666 192.97 520.666 181.021H519.059C519.059 192.632 515.602 201.597 508.771 208.026L509.873 209.197ZM520.666 181.021V172.961H519.059V181.021H520.666ZM519.8 172.16L487.87 174.64L487.995 176.243L519.925 173.763L519.8 172.16ZM487.862 174.64C476.042 175.677 467.474 178.174 462.323 182.251L463.321 183.512C468.091 179.736 476.263 177.272 488.003 176.242L487.862 174.64ZM462.34 182.238C457.178 186.11 454.579 191.308 454.579 197.761H456.186C456.186 191.814 458.547 187.093 463.305 183.524L462.34 182.238ZM454.579 197.761C454.579 204.778 456.929 210.203 461.711 213.897L462.694 212.625C458.382 209.293 456.186 204.385 456.186 197.761H454.579ZM461.711 213.897C466.448 217.558 473.054 219.335 481.422 219.335V217.727C473.258 217.727 467.05 215.991 462.694 212.625L461.711 213.897ZM674.196 89.2611H675V88.6435L674.404 88.4843L674.196 89.2611ZM674.196 124.291V125.095H675V124.291H674.196ZM627.696 135.451L628.241 136.043L628.249 136.035L627.696 135.451ZM615.916 243.021V243.825H616.72V243.021H615.916ZM578.096 243.021H577.292V243.825H578.096V243.021ZM578.096 90.1911V89.3872H577.292V90.1911H578.096ZM613.746 90.1911L614.547 90.1125L614.475 89.3872H613.746V90.1911ZM616.846 121.811V122.615H617.733L617.647 121.733L616.846 121.811ZM613.126 121.811L612.339 121.651L612.142 122.615H613.126V121.811ZM673.393 89.2611V124.291H675V89.2611H673.393ZM674.196 123.487H660.246V125.095H674.196V123.487ZM660.246 123.487C646.254 123.487 635.185 127.25 627.144 134.868L628.249 136.035C635.915 128.773 646.546 125.095 660.246 125.095V123.487ZM627.152 134.86C619.076 142.298 615.112 153.608 615.112 168.621H616.72C616.72 153.875 620.61 143.071 628.241 136.043L627.152 134.86ZM615.112 168.621V243.021H616.72V168.621H615.112ZM615.916 242.217H578.096V243.825H615.916V242.217ZM578.9 243.021V90.1911H577.292V243.021H578.9ZM578.096 90.9949H613.746V89.3872H578.096V90.9949ZM612.946 90.2695L616.046 121.89L617.647 121.733L614.547 90.1125L612.946 90.2695ZM616.846 121.007H613.126V122.615H616.846V121.007ZM613.914 121.972C615.946 112.017 620.711 103.913 628.213 97.6273L627.18 96.3949C619.389 102.923 614.44 111.353 612.339 121.651L613.914 121.972ZM628.213 97.6273C635.684 91.3672 645.408 88.205 657.456 88.205V86.5972C645.118 86.5972 635.002 89.8417 627.18 96.3949L628.213 97.6273ZM657.456 88.205C660.122 88.205 662.789 88.3075 665.455 88.5126L665.578 86.9095C662.871 86.7013 660.164 86.5972 657.456 86.5972V88.205ZM665.455 88.5126C668.084 88.7149 670.928 89.2215 673.989 90.0378L674.404 88.4843C671.265 87.6473 668.322 87.1206 665.578 86.9095L665.455 88.5126ZM694.836 302.231V303.035H695.2L695.44 302.761L694.836 302.231ZM664.766 302.231L664.116 301.757L663.183 303.035H664.766V302.231ZM688.636 258.211L687.889 257.914L687.887 257.918L688.636 258.211ZM702.586 94.2211L701.796 94.3718L701.798 94.3805L702.586 94.2211ZM687.396 43.0711L686.65 43.3714L686.655 43.3831L687.396 43.0711ZM664.766 1.84103V1.03711H663.158L664.123 2.32338L664.766 1.84103ZM694.836 1.84103L695.437 1.30754L695.197 1.03711H694.836V1.84103ZM723.356 45.8611L722.626 46.1986L722.628 46.2021L723.356 45.8611ZM740.406 97.6311L739.618 97.7922L739.62 97.8026L740.406 97.6311ZM739.786 209.541L739.003 209.359L739.001 209.365L739.786 209.541ZM721.806 260.691L721.087 260.332L721.081 260.343L721.806 260.691ZM694.836 301.427H664.766V303.035H694.836V301.427ZM665.415 302.705C674.966 289.625 682.954 274.89 689.384 258.505L687.887 257.918C681.504 274.186 673.579 288.798 664.116 301.757L665.415 302.705ZM689.383 258.508C695.81 242.336 700.681 225.131 703.997 206.895L702.415 206.607C699.117 224.745 694.274 241.847 687.889 257.914L689.383 258.508ZM703.997 206.895C707.312 188.661 708.97 170.323 708.97 151.881H707.362C707.362 170.226 705.713 188.468 702.415 206.607L703.997 206.895ZM708.97 151.881C708.97 131.785 707.105 112.511 703.374 94.0617L701.798 94.3805C705.506 112.718 707.362 131.885 707.362 151.881H708.97ZM703.375 94.0703C699.852 75.627 694.774 58.5225 688.137 42.7591L686.655 43.3831C693.244 59.0331 698.292 76.0285 701.796 94.3718L703.375 94.0703ZM688.141 42.7708C681.713 26.8042 674.138 12.9973 665.409 1.35868L664.123 2.32338C672.754 13.8316 680.265 27.5113 686.65 43.3714L688.141 42.7708ZM664.766 2.64495H694.836V1.03711H664.766V2.64495ZM694.234 2.37452C705.546 15.1256 715.01 29.732 722.626 46.1986L724.085 45.5236C716.408 28.9236 706.859 14.1833 695.437 1.30754L694.234 2.37452ZM722.628 46.2021C730.247 62.4696 735.91 79.6658 739.618 97.7922L741.193 97.47C737.461 79.2231 731.758 61.9059 724.084 45.5201L722.628 46.2021ZM739.62 97.8026C743.535 115.727 745.492 133.753 745.492 151.881H747.1C747.1 133.636 745.13 115.495 741.191 97.4595L739.62 97.8026ZM745.492 151.881C745.492 171.662 743.328 190.821 739.003 209.359L740.569 209.724C744.923 191.062 747.1 171.78 747.1 151.881H745.492ZM739.001 209.365C734.881 227.699 728.909 244.687 721.087 260.332L722.525 261.051C730.409 245.282 736.423 228.17 740.57 209.718L739.001 209.365ZM721.081 260.343C713.462 276.199 704.511 289.983 694.231 301.701L695.44 302.761C705.827 290.92 714.856 277.01 722.53 261.039L721.081 260.343Z" fill="#AFAFAF"/>
<rect x="0.703125" y="0.0361328" width="747" height="304" fill="#101010"/>
</g>
</g>
<defs>
<clipPath id="clip0_2332_1043">
<rect width="747" height="303" fill="white" transform="translate(0.703125 0.536133)"/>
</clipPath>
</defs>
</svg>
