<svg viewBox="0 0 20 20" fill="none" xmlns="http://www.w3.org/2000/svg">
<path d="M4.16602 4.16667C4.16593 3.87342 4.24322 3.58533 4.39009 3.3315C4.53695 3.07767 4.74819 2.86708 5.00247 2.721C5.25676 2.57492 5.54509 2.49853 5.83834 2.49952C6.13159 2.50052 6.4194 2.57887 6.67268 2.72667L16.6702 8.55834C16.9225 8.70474 17.1319 8.91479 17.2776 9.16751C17.4233 9.42023 17.5001 9.70675 17.5004 9.99845C17.5006 10.2902 17.4243 10.5768 17.2791 10.8298C17.1338 11.0828 16.9247 11.2932 16.6727 11.44L6.67268 17.2733C6.4194 17.4211 6.13159 17.4995 5.83834 17.5005C5.54509 17.5015 5.25676 17.4251 5.00247 17.279C4.74819 17.1329 4.53695 16.9223 4.39009 16.6685C4.24322 16.4147 4.16593 16.1266 4.16602 15.8333V4.16667Z" stroke="currentColor" stroke-width="1.66667" stroke-linecap="round" stroke-linejoin="round"/>
</svg>
