<svg width="804" height="804" viewBox="0 0 804 804" fill="none" xmlns="http://www.w3.org/2000/svg">
<mask id="mask0_1725_2865" style="mask-type:alpha" maskUnits="userSpaceOnUse" x="280" y="280" width="244" height="244">
<circle cx="402" cy="402" r="122" fill="#101010"/>
</mask>
<g mask="url(#mask0_1725_2865)">
<circle cx="402" cy="402" r="122" fill="#101010"/>
<path d="M142.88 242H130.673V202.791H121.2V192.586H130.673V177.205H142.88V192.586H152.499V202.791H142.88V242Z" fill="white"/>
<path d="M167.274 242H155.067V167.586H167.372V198.982C168.935 196.541 171.116 194.62 173.915 193.221C176.747 191.821 179.905 191.121 183.388 191.121C189.41 191.121 194.016 192.911 197.206 196.492C200.396 200.073 201.991 205.102 201.991 211.58V242H189.784V214.51C189.784 210.473 188.856 207.413 187.001 205.33C185.178 203.247 182.672 202.205 179.481 202.205C175.705 202.205 172.727 203.393 170.546 205.77C168.365 208.146 167.274 211.222 167.274 214.998V242Z" fill="white"/>
<path d="M231.073 243.318C223.716 243.318 217.711 240.893 213.056 236.043C208.401 231.193 206.073 224.943 206.073 217.293C206.073 209.546 208.352 203.247 212.909 198.396C217.466 193.546 223.375 191.121 230.634 191.121C238.023 191.121 243.899 193.416 248.261 198.006C252.655 202.563 254.853 208.699 254.853 216.414V220.076L217.646 220.223C218.524 228.947 223.065 233.309 231.269 233.309C234.589 233.309 237.323 232.674 239.472 231.404C241.62 230.135 243.052 228.328 243.769 225.984H255.048C254.006 231.388 251.353 235.636 247.089 238.729C242.857 241.788 237.519 243.318 231.073 243.318ZM230.731 201.082C227.151 201.082 224.27 202.042 222.089 203.963C219.94 205.883 218.557 208.699 217.938 212.41H242.743C242.743 208.992 241.653 206.258 239.472 204.207C237.291 202.124 234.377 201.082 230.731 201.082Z" fill="white"/>
<path d="M281.571 264.9V192.586H292.851L293.681 200.105C295.146 197.273 297.392 195.076 300.419 193.514C303.446 191.919 306.864 191.121 310.673 191.121C317.639 191.121 323.222 193.449 327.421 198.104C331.653 202.758 333.769 208.96 333.769 216.707C333.769 224.585 331.718 230.997 327.616 235.945C323.515 240.861 317.867 243.318 310.673 243.318C306.929 243.318 303.56 242.618 300.565 241.219C297.571 239.819 295.308 237.882 293.778 235.408V264.9H281.571ZM297.685 206.404C295.146 209.204 293.876 212.833 293.876 217.293C293.876 221.753 295.146 225.366 297.685 228.133C300.256 230.9 303.625 232.283 307.792 232.283C312.024 232.283 315.36 230.9 317.802 228.133C320.243 225.366 321.464 221.753 321.464 217.293C321.464 212.801 320.243 209.171 317.802 206.404C315.36 203.605 312.024 202.205 307.792 202.205C303.625 202.205 300.256 203.605 297.685 206.404Z" fill="white"/>
<path d="M369.491 192.391V203.719H364.999C360.507 203.719 356.991 204.923 354.452 207.332C351.946 209.708 350.692 213.257 350.692 217.977V242H338.485V192.684H350.009L350.692 199.91C351.767 197.404 353.459 195.418 355.771 193.953C358.082 192.456 360.849 191.707 364.071 191.707C365.829 191.707 367.636 191.935 369.491 192.391Z" fill="white"/>
<path d="M378.847 182.723C376.763 182.723 374.989 182.007 373.524 180.574C372.06 179.109 371.327 177.352 371.327 175.301C371.327 173.25 372.043 171.525 373.476 170.125C374.94 168.693 376.731 167.977 378.847 167.977C380.865 167.977 382.574 168.693 383.974 170.125C385.406 171.525 386.122 173.25 386.122 175.301C386.122 177.352 385.406 179.109 383.974 180.574C382.574 182.007 380.865 182.723 378.847 182.723ZM372.743 242V192.586H384.95V242H372.743Z" fill="white"/>
<path d="M404.755 242H392.548V192.586H403.827L404.853 198.982C406.382 196.508 408.547 194.588 411.347 193.221C414.179 191.821 417.287 191.121 420.673 191.121C426.793 191.121 431.448 192.911 434.638 196.492C437.86 200.073 439.472 205.102 439.472 211.58V242H427.265V214.51C427.265 210.473 426.337 207.413 424.481 205.33C422.659 203.247 420.119 202.205 416.864 202.205C413.121 202.205 410.159 203.393 407.978 205.77C405.829 208.146 404.755 211.352 404.755 215.389V242Z" fill="white"/>
<path d="M443.554 217.195C443.554 209.546 445.832 203.296 450.39 198.445C454.979 193.562 460.92 191.121 468.212 191.121C474.95 191.121 480.468 192.863 484.765 196.346C489.094 199.829 491.584 204.549 492.235 210.506H480.028C479.312 207.739 477.978 205.639 476.024 204.207C474.104 202.742 471.679 202.01 468.749 202.01C464.81 202.01 461.653 203.393 459.276 206.16C456.9 208.895 455.712 212.573 455.712 217.195C455.712 221.85 456.835 225.529 459.081 228.23C461.36 230.932 464.452 232.283 468.358 232.283C471.418 232.283 473.957 231.567 475.976 230.135C478.026 228.67 479.377 226.587 480.028 223.885H492.333C491.584 229.679 488.996 234.367 484.569 237.947C480.175 241.528 474.771 243.318 468.358 243.318C460.871 243.318 454.866 240.942 450.341 236.189C445.816 231.404 443.554 225.073 443.554 217.195Z" fill="white"/>
<path d="M502.519 182.723C500.435 182.723 498.661 182.007 497.196 180.574C495.731 179.109 494.999 177.352 494.999 175.301C494.999 173.25 495.715 171.525 497.147 170.125C498.612 168.693 500.403 167.977 502.519 167.977C504.537 167.977 506.246 168.693 507.646 170.125C509.078 171.525 509.794 173.25 509.794 175.301C509.794 177.352 509.078 179.109 507.646 180.574C506.246 182.007 504.537 182.723 502.519 182.723ZM496.415 242V192.586H508.622V242H496.415Z" fill="white"/>
<path d="M516.22 264.9V192.586H527.499L528.329 200.105C529.794 197.273 532.04 195.076 535.067 193.514C538.095 191.919 541.513 191.121 545.321 191.121C552.287 191.121 557.87 193.449 562.069 198.104C566.301 202.758 568.417 208.96 568.417 216.707C568.417 224.585 566.366 230.997 562.265 235.945C558.163 240.861 552.515 243.318 545.321 243.318C541.578 243.318 538.209 242.618 535.214 241.219C532.219 239.819 529.957 237.882 528.427 235.408V264.9H516.22ZM532.333 206.404C529.794 209.204 528.524 212.833 528.524 217.293C528.524 221.753 529.794 225.366 532.333 228.133C534.905 230.9 538.274 232.283 542.44 232.283C546.672 232.283 550.009 230.9 552.45 228.133C554.892 225.366 556.112 221.753 556.112 217.293C556.112 212.801 554.892 209.171 552.45 206.404C550.009 203.605 546.672 202.205 542.44 202.205C538.274 202.205 534.905 203.605 532.333 206.404Z" fill="white"/>
<path d="M585.438 242H573.329V167.586H585.438V242Z" fill="white"/>
<path d="M615.351 243.318C607.994 243.318 601.988 240.893 597.333 236.043C592.678 231.193 590.351 224.943 590.351 217.293C590.351 209.546 592.629 203.247 597.187 198.396C601.744 193.546 607.652 191.121 614.911 191.121C622.3 191.121 628.176 193.416 632.538 198.006C636.933 202.563 639.13 208.699 639.13 216.414V220.076L601.923 220.223C602.802 228.947 607.343 233.309 615.546 233.309C618.866 233.309 621.601 232.674 623.749 231.404C625.897 230.135 627.33 228.328 628.046 225.984H639.325C638.284 231.388 635.631 235.636 631.366 238.729C627.134 241.788 621.796 243.318 615.351 243.318ZM615.009 201.082C611.428 201.082 608.547 202.042 606.366 203.963C604.218 205.883 602.834 208.699 602.216 212.41H627.021C627.021 208.992 625.93 206.258 623.749 204.207C621.568 202.124 618.655 201.082 615.009 201.082Z" fill="white"/>
<path d="M640.087 227.01H651.708C651.773 229.191 652.571 230.9 654.101 232.137C655.663 233.374 657.828 233.992 660.595 233.992C663.427 233.992 665.591 233.471 667.089 232.43C668.619 231.355 669.384 229.907 669.384 228.084C669.384 226.749 668.961 225.659 668.114 224.812C667.268 223.934 665.803 223.266 663.72 222.811L654.784 220.711C650.292 219.702 646.972 218.074 644.823 215.828C642.675 213.582 641.601 210.506 641.601 206.6C641.601 201.814 643.407 198.038 647.021 195.271C650.666 192.505 655.386 191.121 661.181 191.121C666.747 191.121 671.239 192.586 674.657 195.516C678.108 198.445 679.849 202.303 679.882 207.088H668.31C668.244 204.972 667.528 203.296 666.161 202.059C664.826 200.822 663.004 200.203 660.692 200.203C658.316 200.203 656.444 200.724 655.077 201.766C653.743 202.807 653.075 204.256 653.075 206.111C653.075 208.813 655.224 210.669 659.521 211.678L668.407 213.777C672.672 214.754 675.813 216.3 677.831 218.416C679.882 220.499 680.907 223.396 680.907 227.107C680.907 232.055 679.003 235.994 675.194 238.924C671.386 241.854 666.389 243.318 660.204 243.318C654.084 243.318 649.201 241.821 645.556 238.826C641.91 235.831 640.087 231.893 640.087 227.01Z" fill="white"/>
<path d="M250.829 335.945C245.881 331.095 243.407 324.845 243.407 317.195C243.407 309.546 245.881 303.312 250.829 298.494C255.777 293.644 262.092 291.219 269.774 291.219C277.457 291.219 283.772 293.644 288.72 298.494C293.7 303.312 296.19 309.546 296.19 317.195C296.19 324.845 293.7 331.095 288.72 335.945C283.772 340.796 277.457 343.221 269.774 343.221C262.092 343.221 255.777 340.796 250.829 335.945ZM259.521 306.307C256.884 309.074 255.565 312.703 255.565 317.195C255.565 321.688 256.884 325.333 259.521 328.133C262.157 330.9 265.575 332.283 269.774 332.283C273.974 332.283 277.392 330.9 280.028 328.133C282.665 325.333 283.983 321.688 283.983 317.195C283.983 312.703 282.665 309.074 280.028 306.307C277.392 303.507 273.974 302.107 269.774 302.107C265.575 302.107 262.157 303.507 259.521 306.307Z" fill="white"/>
<path d="M295.78 292.586H302.86V286.58C302.86 280.135 304.423 275.366 307.548 272.273C310.705 269.148 315.084 267.586 320.683 267.586C322.961 267.586 325.061 267.765 326.981 268.123V278.523H322.685C319.755 278.523 317.737 279.207 316.63 280.574C315.523 281.909 314.97 283.911 314.97 286.58V292.586H326.786V302.791H314.97V342H302.86V302.791H295.78V292.586Z" fill="white"/>
<path d="M363.71 342H351.503V292.586H362.782L363.808 298.982C365.338 296.508 367.502 294.588 370.302 293.221C373.134 291.821 376.243 291.121 379.628 291.121C385.748 291.121 390.403 292.911 393.593 296.492C396.815 300.073 398.427 305.102 398.427 311.58V342H386.22V314.51C386.22 310.473 385.292 307.413 383.437 305.33C381.614 303.247 379.075 302.205 375.819 302.205C372.076 302.205 369.114 303.393 366.933 305.77C364.784 308.146 363.71 311.352 363.71 315.389V342Z" fill="white"/>
<path d="M409.931 335.945C404.983 331.095 402.509 324.845 402.509 317.195C402.509 309.546 404.983 303.312 409.931 298.494C414.879 293.644 421.194 291.219 428.876 291.219C436.558 291.219 442.873 293.644 447.821 298.494C452.802 303.312 455.292 309.546 455.292 317.195C455.292 324.845 452.802 331.095 447.821 335.945C442.873 340.796 436.558 343.221 428.876 343.221C421.194 343.221 414.879 340.796 409.931 335.945ZM418.622 306.307C415.985 309.074 414.667 312.703 414.667 317.195C414.667 321.688 415.985 325.333 418.622 328.133C421.259 330.9 424.677 332.283 428.876 332.283C433.075 332.283 436.493 330.9 439.13 328.133C441.767 325.333 443.085 321.688 443.085 317.195C443.085 312.703 441.767 309.074 439.13 306.307C436.493 303.507 433.075 302.107 428.876 302.107C424.677 302.107 421.259 303.507 418.622 306.307Z" fill="white"/>
<path d="M474.657 343.318C469.449 343.318 465.331 341.919 462.304 339.119C459.276 336.32 457.763 332.576 457.763 327.889C457.763 323.331 459.341 319.686 462.499 316.951C465.689 314.217 470.214 312.638 476.073 312.215L490.868 311.092V310.018C490.868 303.735 487.466 300.594 480.663 300.594C477.082 300.594 474.315 301.31 472.362 302.742C470.442 304.174 469.481 306.193 469.481 308.797H459.081C459.081 303.458 461.099 299.178 465.136 295.955C469.172 292.732 474.543 291.121 481.249 291.121C487.987 291.121 493.261 292.911 497.069 296.492C500.878 300.073 502.782 305.249 502.782 312.02V342H492.04L491.161 334.676C490.119 337.215 488.069 339.298 485.009 340.926C481.949 342.521 478.498 343.318 474.657 343.318ZM478.661 334.09C482.437 334.09 485.432 333.016 487.646 330.867C489.859 328.719 490.966 325.757 490.966 321.98V319.393L480.663 320.223C476.952 320.548 474.267 321.313 472.606 322.518C470.979 323.689 470.165 325.317 470.165 327.4C470.165 331.86 472.997 334.09 478.661 334.09Z" fill="white"/>
<path d="M540.751 292.391V303.719H536.259C531.767 303.719 528.251 304.923 525.712 307.332C523.205 309.708 521.952 313.257 521.952 317.977V342H509.745V292.684H521.269L521.952 299.91C523.026 297.404 524.719 295.418 527.03 293.953C529.341 292.456 532.108 291.707 535.331 291.707C537.089 291.707 538.896 291.935 540.751 292.391Z" fill="white"/>
<circle cx="402" cy="402" r="4" fill="white"/>
</g>
</svg>
