<svg width="804" height="804" viewBox="0 0 804 804" fill="none" xmlns="http://www.w3.org/2000/svg">
<circle cx="402" cy="402" r="262" fill="#101010"/>
<mask id="mask0_1725_3142" style="mask-type:alpha" maskUnits="userSpaceOnUse" x="140" y="140" width="524" height="524">
<path d="M664 402C664 546.699 546.699 664 402 664C257.301 664 140 546.699 140 402C140 257.301 257.301 140 402 140C546.699 140 664 257.301 664 402ZM174.986 402C174.986 527.377 276.623 629.014 402 629.014C527.377 629.014 629.014 527.377 629.014 402C629.014 276.623 527.377 174.986 402 174.986C276.623 174.986 174.986 276.623 174.986 402Z" fill="#101010"/>
</mask>
<g mask="url(#mask0_1725_3142)">
<circle cx="402" cy="402" r="262" fill="#101010"/>
<path opacity="0.4" d="M662 402C662 545.594 545.594 662 402 662C258.406 662 142 545.594 142 402" stroke="white"/>
<path d="M558.57 581.012L557.179 579.403L564.751 572.855L566.142 574.464L563.224 576.988L570.439 585.331L568.697 586.837L561.482 578.494L558.57 581.012Z" fill="white"/>
<path d="M576.162 580.185L574.568 581.698L565.348 571.982L566.954 570.457L570.845 574.557C570.746 574.044 570.793 573.523 570.985 572.994C571.181 572.46 571.507 571.977 571.961 571.546C572.748 570.8 573.571 570.462 574.431 570.535C575.291 570.607 576.123 571.066 576.925 571.912L580.695 575.883L579.101 577.396L575.695 573.807C575.195 573.28 574.694 572.995 574.194 572.953C573.698 572.907 573.241 573.082 572.825 573.477C572.332 573.945 572.09 574.469 572.1 575.049C572.11 575.63 572.348 576.167 572.816 576.66L576.162 580.185Z" fill="white"/>
<path d="M585.599 571.211C584.682 572.166 583.618 572.643 582.408 572.643C581.198 572.642 580.097 572.165 579.104 571.211C578.098 570.245 577.564 569.164 577.503 567.967C577.442 566.771 577.864 565.701 578.769 564.759C579.69 563.8 580.721 563.323 581.861 563.33C583 563.327 584.071 563.807 585.072 564.769L585.548 565.226L580.927 570.074C582.169 571.048 583.301 571.002 584.324 569.937C584.738 569.506 584.997 569.072 585.1 568.635C585.203 568.198 585.147 567.787 584.932 567.402L586.339 565.937C586.91 566.746 587.131 567.621 587.001 568.56C586.87 569.491 586.403 570.374 585.599 571.211ZM580.074 565.989C579.628 566.453 579.393 566.947 579.37 567.47C579.352 567.988 579.545 568.519 579.949 569.062L583.042 565.842C582.599 565.416 582.108 565.216 581.57 565.244C581.027 565.267 580.529 565.515 580.074 565.989Z" fill="white"/>
<path d="M590.092 552.467L591.508 550.787L598.31 556.518L597.002 558.07L595.987 557.434C596.136 557.911 596.139 558.439 595.997 559.017C595.859 559.59 595.599 560.103 595.218 560.556C594.565 561.331 593.807 561.734 592.945 561.767C592.082 561.79 591.232 561.449 590.394 560.743L586.139 557.159L587.555 555.478L591.218 558.565C591.85 559.097 592.413 559.365 592.908 559.368C593.399 559.368 593.846 559.128 594.25 558.649C594.7 558.115 594.877 557.591 594.783 557.075C594.685 556.555 594.311 556.022 593.661 555.474L590.092 552.467Z" fill="white"/>
<path d="M596.676 554.229L597.962 552.579C598.279 552.811 598.61 552.887 598.955 552.807C599.303 552.722 599.63 552.483 599.936 552.09C600.25 551.688 600.415 551.323 600.433 550.995C600.45 550.659 600.329 550.39 600.07 550.188C599.881 550.041 599.679 549.98 599.465 550.007C599.247 550.03 598.99 550.164 598.695 550.409L597.408 551.445C596.768 551.972 596.169 552.263 595.613 552.32C595.056 552.376 594.5 552.188 593.946 551.756C593.266 551.227 592.93 550.552 592.937 549.733C592.947 548.909 593.273 548.086 593.914 547.264C594.53 546.473 595.235 545.997 596.029 545.836C596.827 545.671 597.567 545.85 598.25 546.375L596.97 548.018C596.662 547.793 596.345 547.709 596.018 547.767C595.695 547.819 595.406 548.01 595.15 548.338C594.887 548.675 594.754 548.998 594.75 549.308C594.751 549.613 594.882 549.868 595.146 550.073C595.53 550.372 596.031 550.272 596.649 549.774L597.931 548.744C598.541 548.247 599.108 547.972 599.632 547.919C600.155 547.859 600.679 548.034 601.206 548.444C601.909 548.992 602.257 549.698 602.252 550.563C602.247 551.428 601.902 552.299 601.217 553.177C600.54 554.046 599.788 554.574 598.959 554.76C598.13 554.946 597.369 554.769 596.676 554.229Z" fill="white"/>
<path d="M607.056 545.351C606.286 546.429 605.303 547.055 604.105 547.229C602.908 547.404 601.749 547.091 600.628 546.291C599.493 545.481 598.809 544.488 598.575 543.313C598.341 542.138 598.604 541.019 599.363 539.956C600.136 538.873 601.087 538.252 602.216 538.094C603.343 537.927 604.472 538.247 605.602 539.054L606.138 539.437L602.268 544.902C603.638 545.686 604.752 545.477 605.61 544.276C605.957 543.789 606.15 543.322 606.189 542.875C606.228 542.427 606.113 542.028 605.844 541.678L607.024 540.026C607.707 540.744 608.052 541.577 608.059 542.525C608.064 543.465 607.73 544.407 607.056 545.351ZM600.833 540.983C600.458 541.508 600.298 542.03 600.351 542.551C600.407 543.066 600.675 543.563 601.154 544.042L603.749 540.409C603.248 540.051 602.733 539.925 602.205 540.03C601.672 540.131 601.214 540.449 600.833 540.983Z" fill="white"/>
<path d="M606.027 530.538L607.73 531.659L607.285 532.334C606.841 533.01 606.674 533.657 606.785 534.278C606.894 534.89 607.303 535.429 608.013 535.897L611.625 538.274L610.416 540.11L603.002 535.228L604.143 533.496L605.297 534.108C605.026 533.699 604.895 533.248 604.904 532.755C604.908 532.259 605.069 531.769 605.388 531.285C605.562 531.021 605.775 530.772 606.027 530.538Z" fill="white"/>
<path d="M607.73 524.438C607.537 524.759 607.262 524.967 606.905 525.06C606.543 525.151 606.204 525.101 605.888 524.911C605.571 524.721 605.371 524.45 605.288 524.099C605.203 523.741 605.258 523.398 605.454 523.072C605.641 522.76 605.91 522.563 606.261 522.479C606.609 522.388 606.942 522.438 607.259 522.628C607.575 522.818 607.78 523.091 607.873 523.448C607.965 523.796 607.917 524.127 607.73 524.438ZM616.312 530.873L608.686 526.294L609.817 524.41L617.443 528.989L616.312 530.873Z" fill="white"/>
<path d="M615.684 526.715L616.713 524.894C617.061 525.077 617.399 525.104 617.729 524.974C618.061 524.838 618.35 524.554 618.595 524.12C618.845 523.677 618.956 523.291 618.925 522.964C618.892 522.63 618.733 522.381 618.447 522.22C618.238 522.102 618.03 522.071 617.822 522.129C617.61 522.184 617.375 522.354 617.119 522.64L615.999 523.855C615.443 524.469 614.894 524.845 614.351 524.983C613.809 525.121 613.232 525.016 612.62 524.67C611.87 524.247 611.438 523.629 611.325 522.818C611.214 522.001 611.415 521.139 611.929 520.231C612.422 519.359 613.049 518.785 613.811 518.509C614.576 518.228 615.334 518.296 616.087 518.715L615.062 520.528C614.725 520.351 614.399 520.315 614.084 520.42C613.772 520.519 613.513 520.75 613.309 521.112C613.098 521.485 613.014 521.824 613.056 522.13C613.101 522.432 613.269 522.665 613.56 522.829C613.983 523.068 614.464 522.896 615.003 522.312L616.119 521.106C616.65 520.524 617.17 520.169 617.681 520.04C618.189 519.903 618.733 519.999 619.315 520.328C620.09 520.766 620.539 521.413 620.661 522.27C620.782 523.126 620.569 524.039 620.021 525.008C619.479 525.967 618.812 526.599 618.02 526.905C617.228 527.211 616.449 527.148 615.684 526.715Z" fill="white"/>
<path d="M625.549 514.11L624.562 516.073L618.256 512.903L617.49 514.426L615.849 513.601L616.615 512.077L614.142 510.834L615.129 508.871L617.602 510.114L618.38 508.567L620.021 509.393L619.243 510.939L625.549 514.11Z" fill="white"/>
<path d="M628.323 508.359L627.417 510.361L615.214 504.839L616.127 502.821L621.276 505.151C620.991 504.714 620.838 504.213 620.817 503.65C620.797 503.082 620.917 502.512 621.175 501.941C621.622 500.954 622.258 500.331 623.082 500.074C623.905 499.816 624.849 499.928 625.911 500.409L630.899 502.666L629.993 504.668L625.485 502.628C624.823 502.328 624.253 502.253 623.773 502.403C623.297 502.547 622.94 502.881 622.703 503.404C622.423 504.024 622.397 504.6 622.624 505.134C622.852 505.668 623.276 506.075 623.895 506.356L628.323 508.359Z" fill="white"/>
<path d="M633.412 497.154C632.92 498.384 632.114 499.226 630.992 499.679C629.87 500.133 628.67 500.104 627.391 499.593C626.097 499.075 625.196 498.273 624.69 497.187C624.184 496.101 624.174 494.951 624.659 493.738C625.154 492.503 625.93 491.675 626.989 491.253C628.044 490.823 629.216 490.866 630.506 491.382L631.118 491.626L628.655 497.854C630.171 498.291 631.204 497.824 631.752 496.453C631.974 495.898 632.051 495.398 631.983 494.954C631.914 494.51 631.708 494.15 631.364 493.874L632.118 491.989C632.952 492.524 633.484 493.252 633.716 494.171C633.944 495.083 633.843 496.077 633.412 497.154ZM626.331 494.388C626.091 494.986 626.059 495.532 626.234 496.025C626.412 496.512 626.79 496.932 627.369 497.283L629.027 493.138C628.456 492.909 627.926 492.909 627.437 493.136C626.943 493.361 626.574 493.778 626.331 494.388Z" fill="white"/>
<path d="M632.521 486.31C631.213 485.88 630.272 485.138 629.7 484.086C629.123 483.027 629.04 481.873 629.45 480.627C629.829 479.475 630.438 478.629 631.275 478.091C632.114 477.546 633.061 477.386 634.117 477.61L633.43 479.697C632.916 479.664 632.482 479.774 632.127 480.027C631.769 480.273 631.507 480.647 631.342 481.148C631.121 481.821 631.179 482.439 631.519 483.001C631.853 483.561 632.415 483.971 633.205 484.231C634.001 484.493 634.693 484.508 635.281 484.276C635.871 484.039 636.276 483.586 636.496 482.918C636.668 482.395 636.689 481.921 636.558 481.495C636.423 481.062 636.142 480.714 635.717 480.45L636.409 478.346C637.358 478.8 638.014 479.507 638.377 480.465C638.742 481.418 638.744 482.443 638.383 483.539C637.962 484.819 637.217 485.712 636.15 486.219C635.077 486.723 633.868 486.753 632.521 486.31Z" fill="white"/>
<path d="M639.386 475.973C638.307 476.598 637.103 476.726 635.777 476.359C634.45 475.991 633.487 475.262 632.889 474.172C632.286 473.081 632.169 471.869 632.538 470.536C632.907 469.204 633.632 468.225 634.711 467.6C635.786 466.967 636.987 466.835 638.314 467.203C639.641 467.571 640.605 468.303 641.207 469.4C641.811 470.491 641.928 471.703 641.558 473.036C641.189 474.369 640.465 475.347 639.386 475.973ZM634.662 473.04C635.016 473.631 635.582 474.034 636.361 474.25C637.14 474.466 637.836 474.412 638.448 474.089C639.055 473.765 639.459 473.239 639.661 472.51C639.863 471.782 639.787 471.122 639.434 470.532C639.075 469.94 638.506 469.536 637.727 469.32C636.948 469.104 636.255 469.159 635.648 469.483C635.036 469.806 634.629 470.331 634.427 471.06C634.225 471.788 634.303 472.448 634.662 473.04Z" fill="white"/>
<path d="M635.752 458.588L637.737 459.053L637.553 459.84C637.368 460.627 637.435 461.293 637.753 461.837C638.066 462.374 638.637 462.739 639.464 462.933L643.674 463.919L643.173 466.059L634.53 464.033L635.003 462.014L636.298 462.191C635.903 461.9 635.624 461.522 635.462 461.056C635.295 460.59 635.277 460.074 635.41 459.509C635.482 459.201 635.596 458.894 635.752 458.588Z" fill="white"/>
<path d="M645.726 455.557C645.471 456.857 644.834 457.834 643.816 458.488C642.798 459.142 641.614 459.336 640.262 459.071C638.894 458.803 637.86 458.182 637.161 457.209C636.463 456.236 636.239 455.108 636.491 453.826C636.747 452.521 637.356 451.563 638.317 450.951C639.275 450.333 640.435 450.158 641.797 450.425L642.444 450.552L641.181 457.129C642.752 457.276 643.68 456.625 643.964 455.176C644.079 454.59 644.062 454.085 643.912 453.661C643.762 453.238 643.493 452.922 643.104 452.714L643.495 450.722C644.413 451.093 645.071 451.709 645.47 452.569C645.864 453.423 645.949 454.419 645.726 455.557ZM638.253 454.154C638.129 454.787 638.199 455.329 638.463 455.781C638.728 456.227 639.177 456.569 639.811 456.806L640.671 452.425C640.067 452.307 639.546 452.404 639.108 452.719C638.665 453.032 638.38 453.51 638.253 454.154Z" fill="white"/>
<path d="M647.647 442.758L638.365 445.091L638.673 442.765L642.928 441.769C644.199 441.5 645.05 441.347 645.48 441.309C644.973 441.124 644.193 440.742 643.141 440.165L639.302 438.025L639.6 435.777L647.931 440.615L647.647 442.758Z" fill="white"/>
<path d="M649.075 432.656C648.993 433.59 648.676 434.306 648.126 434.805C647.576 435.303 646.881 435.515 646.041 435.441C645.223 435.368 644.595 435.027 644.155 434.418C643.715 433.802 643.504 432.966 643.521 431.909L643.554 429.238L643.362 429.221C642.235 429.121 641.618 429.681 641.51 430.901C641.453 431.543 641.538 432.051 641.763 432.424C641.99 432.791 642.336 432.995 642.803 433.036L642.638 434.901C641.681 434.816 640.946 434.387 640.432 433.612C639.918 432.837 639.714 431.848 639.821 430.646C639.928 429.438 640.333 428.521 641.035 427.895C641.738 427.269 642.696 427.009 643.91 427.117L649.285 427.593L649.115 429.519L647.788 429.56C648.226 429.787 648.567 430.188 648.811 430.762C649.048 431.336 649.136 431.968 649.075 432.656ZM647.484 431.792C647.544 431.115 647.399 430.561 647.049 430.13C646.699 429.699 646.185 429.453 645.508 429.394L645.044 429.352L645.029 431.213C645.029 431.883 645.123 432.377 645.313 432.694C645.497 433.004 645.776 433.176 646.15 433.209C646.949 433.28 647.394 432.807 647.484 431.792Z" fill="white"/>
<path d="M649.599 422.178L649.478 424.355L636.104 423.61L636.225 421.434L649.599 422.178Z" fill="white"/>
<path d="M640.965 414.665L641.024 412.469L649.915 412.705L649.861 414.734L648.671 414.87C649.085 415.15 649.417 415.56 649.667 416.1C649.916 416.635 650.033 417.198 650.018 417.789C649.991 418.802 649.65 419.591 648.996 420.153C648.337 420.71 647.46 420.974 646.364 420.945L640.803 420.798L640.861 418.601L645.649 418.728C646.475 418.75 647.083 418.608 647.472 418.302C647.855 417.996 648.055 417.529 648.072 416.902C648.09 416.205 647.902 415.684 647.506 415.34C647.105 414.995 646.48 414.811 645.631 414.789L640.965 414.665Z" fill="white"/>
<path d="M650.105 406.873C650.128 408.197 649.71 409.285 648.852 410.138C647.993 410.991 646.875 411.429 645.499 411.452C644.104 411.476 642.964 411.086 642.077 410.281C641.19 409.475 640.735 408.42 640.713 407.113C640.69 405.783 641.085 404.719 641.897 403.919C642.704 403.114 643.801 402.7 645.19 402.676L645.849 402.665L645.99 409.361C647.558 409.176 648.329 408.345 648.303 406.868C648.293 406.271 648.17 405.781 647.935 405.398C647.7 405.015 647.37 404.763 646.946 404.641L646.912 402.611C647.887 402.782 648.66 403.247 649.23 404.004C649.794 404.757 650.085 405.713 650.105 406.873ZM642.505 407.065C642.516 407.709 642.698 408.225 643.05 408.611C643.402 408.992 643.913 409.232 644.583 409.332L644.507 404.868C643.891 404.879 643.403 405.083 643.04 405.482C642.672 405.881 642.494 406.409 642.505 407.065Z" fill="white"/>
<path opacity="0.4" d="M163.092 405.489V402.615H165.157V407.704H152V405.489H163.092Z" fill="white"/>
<path d="M142.88 242H130.673V202.791H121.2V192.586H130.673V177.205H142.88V192.586H152.499V202.791H142.88V242Z" fill="white"/>
<path d="M167.274 242H155.067V167.586H167.372V198.982C168.935 196.541 171.116 194.62 173.915 193.221C176.747 191.821 179.905 191.121 183.388 191.121C189.41 191.121 194.016 192.911 197.206 196.492C200.396 200.073 201.991 205.102 201.991 211.58V242H189.784V214.51C189.784 210.473 188.856 207.413 187.001 205.33C185.178 203.247 182.672 202.205 179.481 202.205C175.705 202.205 172.727 203.393 170.546 205.77C168.365 208.146 167.274 211.222 167.274 214.998V242Z" fill="white"/>
<path d="M231.073 243.318C223.716 243.318 217.711 240.893 213.056 236.043C208.401 231.193 206.073 224.943 206.073 217.293C206.073 209.546 208.352 203.247 212.909 198.396C217.466 193.546 223.375 191.121 230.634 191.121C238.023 191.121 243.899 193.416 248.261 198.006C252.655 202.563 254.853 208.699 254.853 216.414V220.076L217.646 220.223C218.524 228.947 223.065 233.309 231.269 233.309C234.589 233.309 237.323 232.674 239.472 231.404C241.62 230.135 243.052 228.328 243.769 225.984H255.048C254.006 231.388 251.353 235.636 247.089 238.729C242.857 241.788 237.519 243.318 231.073 243.318ZM230.731 201.082C227.151 201.082 224.27 202.042 222.089 203.963C219.94 205.883 218.557 208.699 217.938 212.41H242.743C242.743 208.992 241.653 206.258 239.472 204.207C237.291 202.124 234.377 201.082 230.731 201.082Z" fill="white"/>
<path d="M281.571 264.9V192.586H292.851L293.681 200.105C295.146 197.273 297.392 195.076 300.419 193.514C303.446 191.919 306.864 191.121 310.673 191.121C317.639 191.121 323.222 193.449 327.421 198.104C331.653 202.758 333.769 208.96 333.769 216.707C333.769 224.585 331.718 230.997 327.616 235.945C323.515 240.861 317.867 243.318 310.673 243.318C306.929 243.318 303.56 242.618 300.565 241.219C297.571 239.819 295.308 237.882 293.778 235.408V264.9H281.571ZM297.685 206.404C295.146 209.204 293.876 212.833 293.876 217.293C293.876 221.753 295.146 225.366 297.685 228.133C300.256 230.9 303.625 232.283 307.792 232.283C312.024 232.283 315.36 230.9 317.802 228.133C320.243 225.366 321.464 221.753 321.464 217.293C321.464 212.801 320.243 209.171 317.802 206.404C315.36 203.605 312.024 202.205 307.792 202.205C303.625 202.205 300.256 203.605 297.685 206.404Z" fill="white"/>
<path d="M369.491 192.391V203.719H364.999C360.507 203.719 356.991 204.923 354.452 207.332C351.946 209.708 350.692 213.257 350.692 217.977V242H338.485V192.684H350.009L350.692 199.91C351.767 197.404 353.459 195.418 355.771 193.953C358.082 192.456 360.849 191.707 364.071 191.707C365.829 191.707 367.636 191.935 369.491 192.391Z" fill="white"/>
<path d="M378.847 182.723C376.763 182.723 374.989 182.007 373.524 180.574C372.06 179.109 371.327 177.352 371.327 175.301C371.327 173.25 372.043 171.525 373.476 170.125C374.94 168.693 376.731 167.977 378.847 167.977C380.865 167.977 382.574 168.693 383.974 170.125C385.406 171.525 386.122 173.25 386.122 175.301C386.122 177.352 385.406 179.109 383.974 180.574C382.574 182.007 380.865 182.723 378.847 182.723ZM372.743 242V192.586H384.95V242H372.743Z" fill="white"/>
<path d="M404.755 242H392.548V192.586H403.827L404.853 198.982C406.382 196.508 408.547 194.588 411.347 193.221C414.179 191.821 417.287 191.121 420.673 191.121C426.793 191.121 431.448 192.911 434.638 196.492C437.86 200.073 439.472 205.102 439.472 211.58V242H427.265V214.51C427.265 210.473 426.337 207.413 424.481 205.33C422.659 203.247 420.119 202.205 416.864 202.205C413.121 202.205 410.159 203.393 407.978 205.77C405.829 208.146 404.755 211.352 404.755 215.389V242Z" fill="white"/>
<path d="M443.554 217.195C443.554 209.546 445.832 203.296 450.39 198.445C454.979 193.562 460.92 191.121 468.212 191.121C474.95 191.121 480.468 192.863 484.765 196.346C489.094 199.829 491.584 204.549 492.235 210.506H480.028C479.312 207.739 477.978 205.639 476.024 204.207C474.104 202.742 471.679 202.01 468.749 202.01C464.81 202.01 461.653 203.393 459.276 206.16C456.9 208.895 455.712 212.573 455.712 217.195C455.712 221.85 456.835 225.529 459.081 228.23C461.36 230.932 464.452 232.283 468.358 232.283C471.418 232.283 473.957 231.567 475.976 230.135C478.026 228.67 479.377 226.587 480.028 223.885H492.333C491.584 229.679 488.996 234.367 484.569 237.947C480.175 241.528 474.771 243.318 468.358 243.318C460.871 243.318 454.866 240.942 450.341 236.189C445.816 231.404 443.554 225.073 443.554 217.195Z" fill="white"/>
<path d="M502.519 182.723C500.435 182.723 498.661 182.007 497.196 180.574C495.731 179.109 494.999 177.352 494.999 175.301C494.999 173.25 495.715 171.525 497.147 170.125C498.612 168.693 500.403 167.977 502.519 167.977C504.537 167.977 506.246 168.693 507.646 170.125C509.078 171.525 509.794 173.25 509.794 175.301C509.794 177.352 509.078 179.109 507.646 180.574C506.246 182.007 504.537 182.723 502.519 182.723ZM496.415 242V192.586H508.622V242H496.415Z" fill="white"/>
<path d="M516.22 264.9V192.586H527.499L528.329 200.105C529.794 197.273 532.04 195.076 535.067 193.514C538.095 191.919 541.513 191.121 545.321 191.121C552.287 191.121 557.87 193.449 562.069 198.104C566.301 202.758 568.417 208.96 568.417 216.707C568.417 224.585 566.366 230.997 562.265 235.945C558.163 240.861 552.515 243.318 545.321 243.318C541.578 243.318 538.209 242.618 535.214 241.219C532.219 239.819 529.957 237.882 528.427 235.408V264.9H516.22ZM532.333 206.404C529.794 209.204 528.524 212.833 528.524 217.293C528.524 221.753 529.794 225.366 532.333 228.133C534.905 230.9 538.274 232.283 542.44 232.283C546.672 232.283 550.009 230.9 552.45 228.133C554.892 225.366 556.112 221.753 556.112 217.293C556.112 212.801 554.892 209.171 552.45 206.404C550.009 203.605 546.672 202.205 542.44 202.205C538.274 202.205 534.905 203.605 532.333 206.404Z" fill="white"/>
<path d="M585.438 242H573.329V167.586H585.438V242Z" fill="white"/>
<path d="M615.351 243.318C607.994 243.318 601.988 240.893 597.333 236.043C592.678 231.193 590.351 224.943 590.351 217.293C590.351 209.546 592.629 203.247 597.187 198.396C601.744 193.546 607.652 191.121 614.911 191.121C622.3 191.121 628.176 193.416 632.538 198.006C636.933 202.563 639.13 208.699 639.13 216.414V220.076L601.923 220.223C602.802 228.947 607.343 233.309 615.546 233.309C618.866 233.309 621.601 232.674 623.749 231.404C625.897 230.135 627.33 228.328 628.046 225.984H639.325C638.284 231.388 635.631 235.636 631.366 238.729C627.134 241.788 621.796 243.318 615.351 243.318ZM615.009 201.082C611.428 201.082 608.547 202.042 606.366 203.963C604.218 205.883 602.834 208.699 602.216 212.41H627.021C627.021 208.992 625.93 206.258 623.749 204.207C621.568 202.124 618.655 201.082 615.009 201.082Z" fill="white"/>
<path d="M640.087 227.01H651.708C651.773 229.191 652.571 230.9 654.101 232.137C655.663 233.374 657.828 233.992 660.595 233.992C663.427 233.992 665.591 233.471 667.089 232.43C668.619 231.355 669.384 229.907 669.384 228.084C669.384 226.749 668.961 225.659 668.114 224.812C667.268 223.934 665.803 223.266 663.72 222.811L654.784 220.711C650.292 219.702 646.972 218.074 644.823 215.828C642.675 213.582 641.601 210.506 641.601 206.6C641.601 201.814 643.407 198.038 647.021 195.271C650.666 192.505 655.386 191.121 661.181 191.121C666.747 191.121 671.239 192.586 674.657 195.516C678.108 198.445 679.849 202.303 679.882 207.088H668.31C668.244 204.972 667.528 203.296 666.161 202.059C664.826 200.822 663.004 200.203 660.692 200.203C658.316 200.203 656.444 200.724 655.077 201.766C653.743 202.807 653.075 204.256 653.075 206.111C653.075 208.813 655.224 210.669 659.521 211.678L668.407 213.777C672.672 214.754 675.813 216.3 677.831 218.416C679.882 220.499 680.907 223.396 680.907 227.107C680.907 232.055 679.003 235.994 675.194 238.924C671.386 241.854 666.389 243.318 660.204 243.318C654.084 243.318 649.201 241.821 645.556 238.826C641.91 235.831 640.087 231.893 640.087 227.01Z" fill="white"/>
<path d="M250.829 335.945C245.881 331.095 243.407 324.845 243.407 317.195C243.407 309.546 245.881 303.312 250.829 298.494C255.777 293.644 262.092 291.219 269.774 291.219C277.457 291.219 283.772 293.644 288.72 298.494C293.7 303.312 296.19 309.546 296.19 317.195C296.19 324.845 293.7 331.095 288.72 335.945C283.772 340.796 277.457 343.221 269.774 343.221C262.092 343.221 255.777 340.796 250.829 335.945ZM259.521 306.307C256.884 309.074 255.565 312.703 255.565 317.195C255.565 321.688 256.884 325.333 259.521 328.133C262.157 330.9 265.575 332.283 269.774 332.283C273.974 332.283 277.392 330.9 280.028 328.133C282.665 325.333 283.983 321.688 283.983 317.195C283.983 312.703 282.665 309.074 280.028 306.307C277.392 303.507 273.974 302.107 269.774 302.107C265.575 302.107 262.157 303.507 259.521 306.307Z" fill="white"/>
<path d="M295.78 292.586H302.86V286.58C302.86 280.135 304.423 275.366 307.548 272.273C310.705 269.148 315.084 267.586 320.683 267.586C322.961 267.586 325.061 267.765 326.981 268.123V278.523H322.685C319.755 278.523 317.737 279.207 316.63 280.574C315.523 281.909 314.97 283.911 314.97 286.58V292.586H326.786V302.791H314.97V342H302.86V302.791H295.78V292.586Z" fill="white"/>
<path d="M363.71 342H351.503V292.586H362.782L363.808 298.982C365.338 296.508 367.502 294.588 370.302 293.221C373.134 291.821 376.243 291.121 379.628 291.121C385.748 291.121 390.403 292.911 393.593 296.492C396.815 300.073 398.427 305.102 398.427 311.58V342H386.22V314.51C386.22 310.473 385.292 307.413 383.437 305.33C381.614 303.247 379.075 302.205 375.819 302.205C372.076 302.205 369.114 303.393 366.933 305.77C364.784 308.146 363.71 311.352 363.71 315.389V342Z" fill="white"/>
<path d="M409.931 335.945C404.983 331.095 402.509 324.845 402.509 317.195C402.509 309.546 404.983 303.312 409.931 298.494C414.879 293.644 421.194 291.219 428.876 291.219C436.558 291.219 442.873 293.644 447.821 298.494C452.802 303.312 455.292 309.546 455.292 317.195C455.292 324.845 452.802 331.095 447.821 335.945C442.873 340.796 436.558 343.221 428.876 343.221C421.194 343.221 414.879 340.796 409.931 335.945ZM418.622 306.307C415.985 309.074 414.667 312.703 414.667 317.195C414.667 321.688 415.985 325.333 418.622 328.133C421.259 330.9 424.677 332.283 428.876 332.283C433.075 332.283 436.493 330.9 439.13 328.133C441.767 325.333 443.085 321.688 443.085 317.195C443.085 312.703 441.767 309.074 439.13 306.307C436.493 303.507 433.075 302.107 428.876 302.107C424.677 302.107 421.259 303.507 418.622 306.307Z" fill="white"/>
<path d="M474.657 343.318C469.449 343.318 465.331 341.919 462.304 339.119C459.276 336.32 457.763 332.576 457.763 327.889C457.763 323.331 459.341 319.686 462.499 316.951C465.689 314.217 470.214 312.638 476.073 312.215L490.868 311.092V310.018C490.868 303.735 487.466 300.594 480.663 300.594C477.082 300.594 474.315 301.31 472.362 302.742C470.442 304.174 469.481 306.193 469.481 308.797H459.081C459.081 303.458 461.099 299.178 465.136 295.955C469.172 292.732 474.543 291.121 481.249 291.121C487.987 291.121 493.261 292.911 497.069 296.492C500.878 300.073 502.782 305.249 502.782 312.02V342H492.04L491.161 334.676C490.119 337.215 488.069 339.298 485.009 340.926C481.949 342.521 478.498 343.318 474.657 343.318ZM478.661 334.09C482.437 334.09 485.432 333.016 487.646 330.867C489.859 328.719 490.966 325.757 490.966 321.98V319.393L480.663 320.223C476.952 320.548 474.267 321.313 472.606 322.518C470.979 323.689 470.165 325.317 470.165 327.4C470.165 331.86 472.997 334.09 478.661 334.09Z" fill="white"/>
<path d="M540.751 292.391V303.719H536.259C531.767 303.719 528.251 304.923 525.712 307.332C523.205 309.708 521.952 313.257 521.952 317.977V342H509.745V292.684H521.269L521.952 299.91C523.026 297.404 524.719 295.418 527.03 293.953C529.341 292.456 532.108 291.707 535.331 291.707C537.089 291.707 538.896 291.935 540.751 292.391Z" fill="white"/>
</g>
<circle cx="402" cy="402" r="227" fill="#101010"/>
<mask id="mask1_1725_3142" style="mask-type:alpha" maskUnits="userSpaceOnUse" x="175" y="175" width="454" height="454">
<path d="M629 402C629 527.369 527.369 629 402 629C276.631 629 175 527.369 175 402C175 276.631 276.631 175 402 175C527.369 175 629 276.631 629 402ZM209.96 402C209.96 508.061 295.939 594.04 402 594.04C508.061 594.04 594.04 508.061 594.04 402C594.04 295.939 508.061 209.96 402 209.96C295.939 209.96 209.96 295.939 209.96 402Z" fill="#101010"/>
</mask>
<g mask="url(#mask1_1725_3142)">
<circle cx="402" cy="402" r="227" fill="#101010"/>
<path opacity="0.4" d="M627 402C627 526.264 526.264 627 402 627C277.736 627 177 526.264 177 402" stroke="white"/>
<path d="M142.88 242H130.673V202.791H121.2V192.586H130.673V177.205H142.88V192.586H152.499V202.791H142.88V242Z" fill="white"/>
<path d="M167.274 242H155.067V167.586H167.372V198.982C168.935 196.541 171.116 194.62 173.915 193.221C176.747 191.821 179.905 191.121 183.388 191.121C189.41 191.121 194.016 192.911 197.206 196.492C200.396 200.073 201.991 205.102 201.991 211.58V242H189.784V214.51C189.784 210.473 188.856 207.413 187.001 205.33C185.178 203.247 182.672 202.205 179.481 202.205C175.705 202.205 172.727 203.393 170.546 205.77C168.365 208.146 167.274 211.222 167.274 214.998V242Z" fill="white"/>
<path d="M231.073 243.318C223.716 243.318 217.711 240.893 213.056 236.043C208.401 231.193 206.073 224.943 206.073 217.293C206.073 209.546 208.352 203.247 212.909 198.396C217.466 193.546 223.375 191.121 230.634 191.121C238.023 191.121 243.899 193.416 248.261 198.006C252.655 202.563 254.853 208.699 254.853 216.414V220.076L217.646 220.223C218.524 228.947 223.065 233.309 231.269 233.309C234.589 233.309 237.323 232.674 239.472 231.404C241.62 230.135 243.052 228.328 243.769 225.984H255.048C254.006 231.388 251.353 235.636 247.089 238.729C242.857 241.788 237.519 243.318 231.073 243.318ZM230.731 201.082C227.151 201.082 224.27 202.042 222.089 203.963C219.94 205.883 218.557 208.699 217.938 212.41H242.743C242.743 208.992 241.653 206.258 239.472 204.207C237.291 202.124 234.377 201.082 230.731 201.082Z" fill="white"/>
<path d="M281.571 264.9V192.586H292.851L293.681 200.105C295.146 197.273 297.392 195.076 300.419 193.514C303.446 191.919 306.864 191.121 310.673 191.121C317.639 191.121 323.222 193.449 327.421 198.104C331.653 202.758 333.769 208.96 333.769 216.707C333.769 224.585 331.718 230.997 327.616 235.945C323.515 240.861 317.867 243.318 310.673 243.318C306.929 243.318 303.56 242.618 300.565 241.219C297.571 239.819 295.308 237.882 293.778 235.408V264.9H281.571ZM297.685 206.404C295.146 209.204 293.876 212.833 293.876 217.293C293.876 221.753 295.146 225.366 297.685 228.133C300.256 230.9 303.625 232.283 307.792 232.283C312.024 232.283 315.36 230.9 317.802 228.133C320.243 225.366 321.464 221.753 321.464 217.293C321.464 212.801 320.243 209.171 317.802 206.404C315.36 203.605 312.024 202.205 307.792 202.205C303.625 202.205 300.256 203.605 297.685 206.404Z" fill="white"/>
<path d="M369.491 192.391V203.719H364.999C360.507 203.719 356.991 204.923 354.452 207.332C351.946 209.708 350.692 213.257 350.692 217.977V242H338.485V192.684H350.009L350.692 199.91C351.767 197.404 353.459 195.418 355.771 193.953C358.082 192.456 360.849 191.707 364.071 191.707C365.829 191.707 367.636 191.935 369.491 192.391Z" fill="white"/>
<path d="M378.847 182.723C376.763 182.723 374.989 182.007 373.524 180.574C372.06 179.109 371.327 177.352 371.327 175.301C371.327 173.25 372.043 171.525 373.476 170.125C374.94 168.693 376.731 167.977 378.847 167.977C380.865 167.977 382.574 168.693 383.974 170.125C385.406 171.525 386.122 173.25 386.122 175.301C386.122 177.352 385.406 179.109 383.974 180.574C382.574 182.007 380.865 182.723 378.847 182.723ZM372.743 242V192.586H384.95V242H372.743Z" fill="white"/>
<path d="M404.755 242H392.548V192.586H403.827L404.853 198.982C406.382 196.508 408.547 194.588 411.347 193.221C414.179 191.821 417.287 191.121 420.673 191.121C426.793 191.121 431.448 192.911 434.638 196.492C437.86 200.073 439.472 205.102 439.472 211.58V242H427.265V214.51C427.265 210.473 426.337 207.413 424.481 205.33C422.659 203.247 420.119 202.205 416.864 202.205C413.121 202.205 410.159 203.393 407.978 205.77C405.829 208.146 404.755 211.352 404.755 215.389V242Z" fill="white"/>
<path d="M443.554 217.195C443.554 209.546 445.832 203.296 450.39 198.445C454.979 193.562 460.92 191.121 468.212 191.121C474.95 191.121 480.468 192.863 484.765 196.346C489.094 199.829 491.584 204.549 492.235 210.506H480.028C479.312 207.739 477.978 205.639 476.024 204.207C474.104 202.742 471.679 202.01 468.749 202.01C464.81 202.01 461.653 203.393 459.276 206.16C456.9 208.895 455.712 212.573 455.712 217.195C455.712 221.85 456.835 225.529 459.081 228.23C461.36 230.932 464.452 232.283 468.358 232.283C471.418 232.283 473.957 231.567 475.976 230.135C478.026 228.67 479.377 226.587 480.028 223.885H492.333C491.584 229.679 488.996 234.367 484.569 237.947C480.175 241.528 474.771 243.318 468.358 243.318C460.871 243.318 454.866 240.942 450.341 236.189C445.816 231.404 443.554 225.073 443.554 217.195Z" fill="white"/>
<path d="M502.519 182.723C500.435 182.723 498.661 182.007 497.196 180.574C495.731 179.109 494.999 177.352 494.999 175.301C494.999 173.25 495.715 171.525 497.147 170.125C498.612 168.693 500.403 167.977 502.519 167.977C504.537 167.977 506.246 168.693 507.646 170.125C509.078 171.525 509.794 173.25 509.794 175.301C509.794 177.352 509.078 179.109 507.646 180.574C506.246 182.007 504.537 182.723 502.519 182.723ZM496.415 242V192.586H508.622V242H496.415Z" fill="white"/>
<path d="M516.22 264.9V192.586H527.499L528.329 200.105C529.794 197.273 532.04 195.076 535.067 193.514C538.095 191.919 541.513 191.121 545.321 191.121C552.287 191.121 557.87 193.449 562.069 198.104C566.301 202.758 568.417 208.96 568.417 216.707C568.417 224.585 566.366 230.997 562.265 235.945C558.163 240.861 552.515 243.318 545.321 243.318C541.578 243.318 538.209 242.618 535.214 241.219C532.219 239.819 529.957 237.882 528.427 235.408V264.9H516.22ZM532.333 206.404C529.794 209.204 528.524 212.833 528.524 217.293C528.524 221.753 529.794 225.366 532.333 228.133C534.905 230.9 538.274 232.283 542.44 232.283C546.672 232.283 550.009 230.9 552.45 228.133C554.892 225.366 556.112 221.753 556.112 217.293C556.112 212.801 554.892 209.171 552.45 206.404C550.009 203.605 546.672 202.205 542.44 202.205C538.274 202.205 534.905 203.605 532.333 206.404Z" fill="white"/>
<path d="M585.438 242H573.329V167.586H585.438V242Z" fill="white"/>
<path d="M615.351 243.318C607.994 243.318 601.988 240.893 597.333 236.043C592.678 231.193 590.351 224.943 590.351 217.293C590.351 209.546 592.629 203.247 597.187 198.396C601.744 193.546 607.652 191.121 614.911 191.121C622.3 191.121 628.176 193.416 632.538 198.006C636.933 202.563 639.13 208.699 639.13 216.414V220.076L601.923 220.223C602.802 228.947 607.343 233.309 615.546 233.309C618.866 233.309 621.601 232.674 623.749 231.404C625.897 230.135 627.33 228.328 628.046 225.984H639.325C638.284 231.388 635.631 235.636 631.366 238.729C627.134 241.788 621.796 243.318 615.351 243.318ZM615.009 201.082C611.428 201.082 608.547 202.042 606.366 203.963C604.218 205.883 602.834 208.699 602.216 212.41H627.021C627.021 208.992 625.93 206.258 623.749 204.207C621.568 202.124 618.655 201.082 615.009 201.082Z" fill="white"/>
<path d="M640.087 227.01H651.708C651.773 229.191 652.571 230.9 654.101 232.137C655.663 233.374 657.828 233.992 660.595 233.992C663.427 233.992 665.591 233.471 667.089 232.43C668.619 231.355 669.384 229.907 669.384 228.084C669.384 226.749 668.961 225.659 668.114 224.812C667.268 223.934 665.803 223.266 663.72 222.811L654.784 220.711C650.292 219.702 646.972 218.074 644.823 215.828C642.675 213.582 641.601 210.506 641.601 206.6C641.601 201.814 643.407 198.038 647.021 195.271C650.666 192.505 655.386 191.121 661.181 191.121C666.747 191.121 671.239 192.586 674.657 195.516C678.108 198.445 679.849 202.303 679.882 207.088H668.31C668.244 204.972 667.528 203.296 666.161 202.059C664.826 200.822 663.004 200.203 660.692 200.203C658.316 200.203 656.444 200.724 655.077 201.766C653.743 202.807 653.075 204.256 653.075 206.111C653.075 208.813 655.224 210.669 659.521 211.678L668.407 213.777C672.672 214.754 675.813 216.3 677.831 218.416C679.882 220.499 680.907 223.396 680.907 227.107C680.907 232.055 679.003 235.994 675.194 238.924C671.386 241.854 666.389 243.318 660.204 243.318C654.084 243.318 649.201 241.821 645.556 238.826C641.91 235.831 640.087 231.893 640.087 227.01Z" fill="white"/>
<path d="M250.829 335.945C245.881 331.095 243.407 324.845 243.407 317.195C243.407 309.546 245.881 303.312 250.829 298.494C255.777 293.644 262.092 291.219 269.774 291.219C277.457 291.219 283.772 293.644 288.72 298.494C293.7 303.312 296.19 309.546 296.19 317.195C296.19 324.845 293.7 331.095 288.72 335.945C283.772 340.796 277.457 343.221 269.774 343.221C262.092 343.221 255.777 340.796 250.829 335.945ZM259.521 306.307C256.884 309.074 255.565 312.703 255.565 317.195C255.565 321.688 256.884 325.333 259.521 328.133C262.157 330.9 265.575 332.283 269.774 332.283C273.974 332.283 277.392 330.9 280.028 328.133C282.665 325.333 283.983 321.688 283.983 317.195C283.983 312.703 282.665 309.074 280.028 306.307C277.392 303.507 273.974 302.107 269.774 302.107C265.575 302.107 262.157 303.507 259.521 306.307Z" fill="white"/>
<path d="M295.78 292.586H302.86V286.58C302.86 280.135 304.423 275.366 307.548 272.273C310.705 269.148 315.084 267.586 320.683 267.586C322.961 267.586 325.061 267.765 326.981 268.123V278.523H322.685C319.755 278.523 317.737 279.207 316.63 280.574C315.523 281.909 314.97 283.911 314.97 286.58V292.586H326.786V302.791H314.97V342H302.86V302.791H295.78V292.586Z" fill="white"/>
<path d="M363.71 342H351.503V292.586H362.782L363.808 298.982C365.338 296.508 367.502 294.588 370.302 293.221C373.134 291.821 376.243 291.121 379.628 291.121C385.748 291.121 390.403 292.911 393.593 296.492C396.815 300.073 398.427 305.102 398.427 311.58V342H386.22V314.51C386.22 310.473 385.292 307.413 383.437 305.33C381.614 303.247 379.075 302.205 375.819 302.205C372.076 302.205 369.114 303.393 366.933 305.77C364.784 308.146 363.71 311.352 363.71 315.389V342Z" fill="white"/>
<path d="M409.931 335.945C404.983 331.095 402.509 324.845 402.509 317.195C402.509 309.546 404.983 303.312 409.931 298.494C414.879 293.644 421.194 291.219 428.876 291.219C436.558 291.219 442.873 293.644 447.821 298.494C452.802 303.312 455.292 309.546 455.292 317.195C455.292 324.845 452.802 331.095 447.821 335.945C442.873 340.796 436.558 343.221 428.876 343.221C421.194 343.221 414.879 340.796 409.931 335.945ZM418.622 306.307C415.985 309.074 414.667 312.703 414.667 317.195C414.667 321.688 415.985 325.333 418.622 328.133C421.259 330.9 424.677 332.283 428.876 332.283C433.075 332.283 436.493 330.9 439.13 328.133C441.767 325.333 443.085 321.688 443.085 317.195C443.085 312.703 441.767 309.074 439.13 306.307C436.493 303.507 433.075 302.107 428.876 302.107C424.677 302.107 421.259 303.507 418.622 306.307Z" fill="white"/>
<path d="M474.657 343.318C469.449 343.318 465.331 341.919 462.304 339.119C459.276 336.32 457.763 332.576 457.763 327.889C457.763 323.331 459.341 319.686 462.499 316.951C465.689 314.217 470.214 312.638 476.073 312.215L490.868 311.092V310.018C490.868 303.735 487.466 300.594 480.663 300.594C477.082 300.594 474.315 301.31 472.362 302.742C470.442 304.174 469.481 306.193 469.481 308.797H459.081C459.081 303.458 461.099 299.178 465.136 295.955C469.172 292.732 474.543 291.121 481.249 291.121C487.987 291.121 493.261 292.911 497.069 296.492C500.878 300.073 502.782 305.249 502.782 312.02V342H492.04L491.161 334.676C490.119 337.215 488.069 339.298 485.009 340.926C481.949 342.521 478.498 343.318 474.657 343.318ZM478.661 334.09C482.437 334.09 485.432 333.016 487.646 330.867C489.859 328.719 490.966 325.757 490.966 321.98V319.393L480.663 320.223C476.952 320.548 474.267 321.313 472.606 322.518C470.979 323.689 470.165 325.317 470.165 327.4C470.165 331.86 472.997 334.09 478.661 334.09Z" fill="white"/>
<path d="M540.751 292.391V303.719H536.259C531.767 303.719 528.251 304.923 525.712 307.332C523.205 309.708 521.952 313.257 521.952 317.977V342H509.745V292.684H521.269L521.952 299.91C523.026 297.404 524.719 295.418 527.03 293.953C529.341 292.456 532.108 291.707 535.331 291.707C537.089 291.707 538.896 291.935 540.751 292.391Z" fill="white"/>
</g>
<circle cx="402" cy="402" r="192" fill="#101010"/>
<mask id="mask2_1725_3142" style="mask-type:alpha" maskUnits="userSpaceOnUse" x="210" y="210" width="384" height="384">
<path d="M594 402C594 508.039 508.039 594 402 594C295.961 594 210 508.039 210 402C210 295.961 295.961 210 402 210C508.039 210 594 295.961 594 402ZM245.022 402C245.022 488.697 315.303 558.978 402 558.978C488.697 558.978 558.978 488.697 558.978 402C558.978 315.303 488.697 245.022 402 245.022C315.303 245.022 245.022 315.303 245.022 402Z" fill="#101010"/>
</mask>
<g mask="url(#mask2_1725_3142)">
<circle cx="402" cy="402" r="192" fill="#101010"/>
<path d="M142.88 242H130.673V202.791H121.2V192.586H130.673V177.205H142.88V192.586H152.499V202.791H142.88V242Z" fill="white"/>
<path d="M167.274 242H155.067V167.586H167.372V198.982C168.935 196.541 171.116 194.62 173.915 193.221C176.747 191.821 179.905 191.121 183.388 191.121C189.41 191.121 194.016 192.911 197.206 196.492C200.396 200.073 201.991 205.102 201.991 211.58V242H189.784V214.51C189.784 210.473 188.856 207.413 187.001 205.33C185.178 203.247 182.672 202.205 179.481 202.205C175.705 202.205 172.727 203.393 170.546 205.77C168.365 208.146 167.274 211.222 167.274 214.998V242Z" fill="white"/>
<path d="M231.073 243.318C223.716 243.318 217.711 240.893 213.056 236.043C208.401 231.193 206.073 224.943 206.073 217.293C206.073 209.546 208.352 203.247 212.909 198.396C217.466 193.546 223.375 191.121 230.634 191.121C238.023 191.121 243.899 193.416 248.261 198.006C252.655 202.563 254.853 208.699 254.853 216.414V220.076L217.646 220.223C218.524 228.947 223.065 233.309 231.269 233.309C234.589 233.309 237.323 232.674 239.472 231.404C241.62 230.135 243.052 228.328 243.769 225.984H255.048C254.006 231.388 251.353 235.636 247.089 238.729C242.857 241.788 237.519 243.318 231.073 243.318ZM230.731 201.082C227.151 201.082 224.27 202.042 222.089 203.963C219.94 205.883 218.557 208.699 217.938 212.41H242.743C242.743 208.992 241.653 206.258 239.472 204.207C237.291 202.124 234.377 201.082 230.731 201.082Z" fill="white"/>
<path d="M281.571 264.9V192.586H292.851L293.681 200.105C295.146 197.273 297.392 195.076 300.419 193.514C303.446 191.919 306.864 191.121 310.673 191.121C317.639 191.121 323.222 193.449 327.421 198.104C331.653 202.758 333.769 208.96 333.769 216.707C333.769 224.585 331.718 230.997 327.616 235.945C323.515 240.861 317.867 243.318 310.673 243.318C306.929 243.318 303.56 242.618 300.565 241.219C297.571 239.819 295.308 237.882 293.778 235.408V264.9H281.571ZM297.685 206.404C295.146 209.204 293.876 212.833 293.876 217.293C293.876 221.753 295.146 225.366 297.685 228.133C300.256 230.9 303.625 232.283 307.792 232.283C312.024 232.283 315.36 230.9 317.802 228.133C320.243 225.366 321.464 221.753 321.464 217.293C321.464 212.801 320.243 209.171 317.802 206.404C315.36 203.605 312.024 202.205 307.792 202.205C303.625 202.205 300.256 203.605 297.685 206.404Z" fill="white"/>
<path d="M369.491 192.391V203.719H364.999C360.507 203.719 356.991 204.923 354.452 207.332C351.946 209.708 350.692 213.257 350.692 217.977V242H338.485V192.684H350.009L350.692 199.91C351.767 197.404 353.459 195.418 355.771 193.953C358.082 192.456 360.849 191.707 364.071 191.707C365.829 191.707 367.636 191.935 369.491 192.391Z" fill="white"/>
<path d="M378.847 182.723C376.763 182.723 374.989 182.007 373.524 180.574C372.06 179.109 371.327 177.352 371.327 175.301C371.327 173.25 372.043 171.525 373.476 170.125C374.94 168.693 376.731 167.977 378.847 167.977C380.865 167.977 382.574 168.693 383.974 170.125C385.406 171.525 386.122 173.25 386.122 175.301C386.122 177.352 385.406 179.109 383.974 180.574C382.574 182.007 380.865 182.723 378.847 182.723ZM372.743 242V192.586H384.95V242H372.743Z" fill="white"/>
<path d="M404.755 242H392.548V192.586H403.827L404.853 198.982C406.382 196.508 408.547 194.588 411.347 193.221C414.179 191.821 417.287 191.121 420.673 191.121C426.793 191.121 431.448 192.911 434.638 196.492C437.86 200.073 439.472 205.102 439.472 211.58V242H427.265V214.51C427.265 210.473 426.337 207.413 424.481 205.33C422.659 203.247 420.119 202.205 416.864 202.205C413.121 202.205 410.159 203.393 407.978 205.77C405.829 208.146 404.755 211.352 404.755 215.389V242Z" fill="white"/>
<path d="M443.554 217.195C443.554 209.546 445.832 203.296 450.39 198.445C454.979 193.562 460.92 191.121 468.212 191.121C474.95 191.121 480.468 192.863 484.765 196.346C489.094 199.829 491.584 204.549 492.235 210.506H480.028C479.312 207.739 477.978 205.639 476.024 204.207C474.104 202.742 471.679 202.01 468.749 202.01C464.81 202.01 461.653 203.393 459.276 206.16C456.9 208.895 455.712 212.573 455.712 217.195C455.712 221.85 456.835 225.529 459.081 228.23C461.36 230.932 464.452 232.283 468.358 232.283C471.418 232.283 473.957 231.567 475.976 230.135C478.026 228.67 479.377 226.587 480.028 223.885H492.333C491.584 229.679 488.996 234.367 484.569 237.947C480.175 241.528 474.771 243.318 468.358 243.318C460.871 243.318 454.866 240.942 450.341 236.189C445.816 231.404 443.554 225.073 443.554 217.195Z" fill="white"/>
<path d="M502.519 182.723C500.435 182.723 498.661 182.007 497.196 180.574C495.731 179.109 494.999 177.352 494.999 175.301C494.999 173.25 495.715 171.525 497.147 170.125C498.612 168.693 500.403 167.977 502.519 167.977C504.537 167.977 506.246 168.693 507.646 170.125C509.078 171.525 509.794 173.25 509.794 175.301C509.794 177.352 509.078 179.109 507.646 180.574C506.246 182.007 504.537 182.723 502.519 182.723ZM496.415 242V192.586H508.622V242H496.415Z" fill="white"/>
<path d="M516.22 264.9V192.586H527.499L528.329 200.105C529.794 197.273 532.04 195.076 535.067 193.514C538.095 191.919 541.513 191.121 545.321 191.121C552.287 191.121 557.87 193.449 562.069 198.104C566.301 202.758 568.417 208.96 568.417 216.707C568.417 224.585 566.366 230.997 562.265 235.945C558.163 240.861 552.515 243.318 545.321 243.318C541.578 243.318 538.209 242.618 535.214 241.219C532.219 239.819 529.957 237.882 528.427 235.408V264.9H516.22ZM532.333 206.404C529.794 209.204 528.524 212.833 528.524 217.293C528.524 221.753 529.794 225.366 532.333 228.133C534.905 230.9 538.274 232.283 542.44 232.283C546.672 232.283 550.009 230.9 552.45 228.133C554.892 225.366 556.112 221.753 556.112 217.293C556.112 212.801 554.892 209.171 552.45 206.404C550.009 203.605 546.672 202.205 542.44 202.205C538.274 202.205 534.905 203.605 532.333 206.404Z" fill="white"/>
<path d="M585.438 242H573.329V167.586H585.438V242Z" fill="white"/>
<path d="M615.351 243.318C607.994 243.318 601.988 240.893 597.333 236.043C592.678 231.193 590.351 224.943 590.351 217.293C590.351 209.546 592.629 203.247 597.187 198.396C601.744 193.546 607.652 191.121 614.911 191.121C622.3 191.121 628.176 193.416 632.538 198.006C636.933 202.563 639.13 208.699 639.13 216.414V220.076L601.923 220.223C602.802 228.947 607.343 233.309 615.546 233.309C618.866 233.309 621.601 232.674 623.749 231.404C625.897 230.135 627.33 228.328 628.046 225.984H639.325C638.284 231.388 635.631 235.636 631.366 238.729C627.134 241.788 621.796 243.318 615.351 243.318ZM615.009 201.082C611.428 201.082 608.547 202.042 606.366 203.963C604.218 205.883 602.834 208.699 602.216 212.41H627.021C627.021 208.992 625.93 206.258 623.749 204.207C621.568 202.124 618.655 201.082 615.009 201.082Z" fill="white"/>
<path d="M640.087 227.01H651.708C651.773 229.191 652.571 230.9 654.101 232.137C655.663 233.374 657.828 233.992 660.595 233.992C663.427 233.992 665.591 233.471 667.089 232.43C668.619 231.355 669.384 229.907 669.384 228.084C669.384 226.749 668.961 225.659 668.114 224.812C667.268 223.934 665.803 223.266 663.72 222.811L654.784 220.711C650.292 219.702 646.972 218.074 644.823 215.828C642.675 213.582 641.601 210.506 641.601 206.6C641.601 201.814 643.407 198.038 647.021 195.271C650.666 192.505 655.386 191.121 661.181 191.121C666.747 191.121 671.239 192.586 674.657 195.516C678.108 198.445 679.849 202.303 679.882 207.088H668.31C668.244 204.972 667.528 203.296 666.161 202.059C664.826 200.822 663.004 200.203 660.692 200.203C658.316 200.203 656.444 200.724 655.077 201.766C653.743 202.807 653.075 204.256 653.075 206.111C653.075 208.813 655.224 210.669 659.521 211.678L668.407 213.777C672.672 214.754 675.813 216.3 677.831 218.416C679.882 220.499 680.907 223.396 680.907 227.107C680.907 232.055 679.003 235.994 675.194 238.924C671.386 241.854 666.389 243.318 660.204 243.318C654.084 243.318 649.201 241.821 645.556 238.826C641.91 235.831 640.087 231.893 640.087 227.01Z" fill="white"/>
<path d="M250.829 335.945C245.881 331.095 243.407 324.845 243.407 317.195C243.407 309.546 245.881 303.312 250.829 298.494C255.777 293.644 262.092 291.219 269.774 291.219C277.457 291.219 283.772 293.644 288.72 298.494C293.7 303.312 296.19 309.546 296.19 317.195C296.19 324.845 293.7 331.095 288.72 335.945C283.772 340.796 277.457 343.221 269.774 343.221C262.092 343.221 255.777 340.796 250.829 335.945ZM259.521 306.307C256.884 309.074 255.565 312.703 255.565 317.195C255.565 321.688 256.884 325.333 259.521 328.133C262.157 330.9 265.575 332.283 269.774 332.283C273.974 332.283 277.392 330.9 280.028 328.133C282.665 325.333 283.983 321.688 283.983 317.195C283.983 312.703 282.665 309.074 280.028 306.307C277.392 303.507 273.974 302.107 269.774 302.107C265.575 302.107 262.157 303.507 259.521 306.307Z" fill="white"/>
<path d="M295.78 292.586H302.86V286.58C302.86 280.135 304.423 275.366 307.548 272.273C310.705 269.148 315.084 267.586 320.683 267.586C322.961 267.586 325.061 267.765 326.981 268.123V278.523H322.685C319.755 278.523 317.737 279.207 316.63 280.574C315.523 281.909 314.97 283.911 314.97 286.58V292.586H326.786V302.791H314.97V342H302.86V302.791H295.78V292.586Z" fill="white"/>
<path d="M363.71 342H351.503V292.586H362.782L363.808 298.982C365.338 296.508 367.502 294.588 370.302 293.221C373.134 291.821 376.243 291.121 379.628 291.121C385.748 291.121 390.403 292.911 393.593 296.492C396.815 300.073 398.427 305.102 398.427 311.58V342H386.22V314.51C386.22 310.473 385.292 307.413 383.437 305.33C381.614 303.247 379.075 302.205 375.819 302.205C372.076 302.205 369.114 303.393 366.933 305.77C364.784 308.146 363.71 311.352 363.71 315.389V342Z" fill="white"/>
<path d="M409.931 335.945C404.983 331.095 402.509 324.845 402.509 317.195C402.509 309.546 404.983 303.312 409.931 298.494C414.879 293.644 421.194 291.219 428.876 291.219C436.558 291.219 442.873 293.644 447.821 298.494C452.802 303.312 455.292 309.546 455.292 317.195C455.292 324.845 452.802 331.095 447.821 335.945C442.873 340.796 436.558 343.221 428.876 343.221C421.194 343.221 414.879 340.796 409.931 335.945ZM418.622 306.307C415.985 309.074 414.667 312.703 414.667 317.195C414.667 321.688 415.985 325.333 418.622 328.133C421.259 330.9 424.677 332.283 428.876 332.283C433.075 332.283 436.493 330.9 439.13 328.133C441.767 325.333 443.085 321.688 443.085 317.195C443.085 312.703 441.767 309.074 439.13 306.307C436.493 303.507 433.075 302.107 428.876 302.107C424.677 302.107 421.259 303.507 418.622 306.307Z" fill="white"/>
<path d="M474.657 343.318C469.449 343.318 465.331 341.919 462.304 339.119C459.276 336.32 457.763 332.576 457.763 327.889C457.763 323.331 459.341 319.686 462.499 316.951C465.689 314.217 470.214 312.638 476.073 312.215L490.868 311.092V310.018C490.868 303.735 487.466 300.594 480.663 300.594C477.082 300.594 474.315 301.31 472.362 302.742C470.442 304.174 469.481 306.193 469.481 308.797H459.081C459.081 303.458 461.099 299.178 465.136 295.955C469.172 292.732 474.543 291.121 481.249 291.121C487.987 291.121 493.261 292.911 497.069 296.492C500.878 300.073 502.782 305.249 502.782 312.02V342H492.04L491.161 334.676C490.119 337.215 488.069 339.298 485.009 340.926C481.949 342.521 478.498 343.318 474.657 343.318ZM478.661 334.09C482.437 334.09 485.432 333.016 487.646 330.867C489.859 328.719 490.966 325.757 490.966 321.98V319.393L480.663 320.223C476.952 320.548 474.267 321.313 472.606 322.518C470.979 323.689 470.165 325.317 470.165 327.4C470.165 331.86 472.997 334.09 478.661 334.09Z" fill="white"/>
<path d="M540.751 292.391V303.719H536.259C531.767 303.719 528.251 304.923 525.712 307.332C523.205 309.708 521.952 313.257 521.952 317.977V342H509.745V292.684H521.269L521.952 299.91C523.026 297.404 524.719 295.418 527.03 293.953C529.341 292.456 532.108 291.707 535.331 291.707C537.089 291.707 538.896 291.935 540.751 292.391Z" fill="white"/>
</g>
<circle cx="402" cy="402" r="157" fill="#101010"/>
<mask id="mask3_1725_3142" style="mask-type:alpha" maskUnits="userSpaceOnUse" x="245" y="245" width="314" height="314">
<path d="M559 402C559 488.709 488.709 559 402 559C315.291 559 245 488.709 245 402C245 315.291 315.291 245 402 245C488.709 245 559 315.291 559 402ZM280.129 402C280.129 469.308 334.692 523.871 402 523.871C469.308 523.871 523.871 469.308 523.871 402C523.871 334.692 469.308 280.129 402 280.129C334.692 280.129 280.129 334.692 280.129 402Z" fill="#101010"/>
</mask>
<g mask="url(#mask3_1725_3142)">
<circle cx="402" cy="402" r="157" fill="#101010"/>
<path d="M142.88 242H130.673V202.791H121.2V192.586H130.673V177.205H142.88V192.586H152.499V202.791H142.88V242Z" fill="white"/>
<path d="M167.274 242H155.067V167.586H167.372V198.982C168.935 196.541 171.116 194.62 173.915 193.221C176.747 191.821 179.905 191.121 183.388 191.121C189.41 191.121 194.016 192.911 197.206 196.492C200.396 200.073 201.991 205.102 201.991 211.58V242H189.784V214.51C189.784 210.473 188.856 207.413 187.001 205.33C185.178 203.247 182.672 202.205 179.481 202.205C175.705 202.205 172.727 203.393 170.546 205.77C168.365 208.146 167.274 211.222 167.274 214.998V242Z" fill="white"/>
<path d="M231.073 243.318C223.716 243.318 217.711 240.893 213.056 236.043C208.401 231.193 206.073 224.943 206.073 217.293C206.073 209.546 208.352 203.247 212.909 198.396C217.466 193.546 223.375 191.121 230.634 191.121C238.023 191.121 243.899 193.416 248.261 198.006C252.655 202.563 254.853 208.699 254.853 216.414V220.076L217.646 220.223C218.524 228.947 223.065 233.309 231.269 233.309C234.589 233.309 237.323 232.674 239.472 231.404C241.62 230.135 243.052 228.328 243.769 225.984H255.048C254.006 231.388 251.353 235.636 247.089 238.729C242.857 241.788 237.519 243.318 231.073 243.318ZM230.731 201.082C227.151 201.082 224.27 202.042 222.089 203.963C219.94 205.883 218.557 208.699 217.938 212.41H242.743C242.743 208.992 241.653 206.258 239.472 204.207C237.291 202.124 234.377 201.082 230.731 201.082Z" fill="white"/>
<path d="M281.571 264.9V192.586H292.851L293.681 200.105C295.146 197.273 297.392 195.076 300.419 193.514C303.446 191.919 306.864 191.121 310.673 191.121C317.639 191.121 323.222 193.449 327.421 198.104C331.653 202.758 333.769 208.96 333.769 216.707C333.769 224.585 331.718 230.997 327.616 235.945C323.515 240.861 317.867 243.318 310.673 243.318C306.929 243.318 303.56 242.618 300.565 241.219C297.571 239.819 295.308 237.882 293.778 235.408V264.9H281.571ZM297.685 206.404C295.146 209.204 293.876 212.833 293.876 217.293C293.876 221.753 295.146 225.366 297.685 228.133C300.256 230.9 303.625 232.283 307.792 232.283C312.024 232.283 315.36 230.9 317.802 228.133C320.243 225.366 321.464 221.753 321.464 217.293C321.464 212.801 320.243 209.171 317.802 206.404C315.36 203.605 312.024 202.205 307.792 202.205C303.625 202.205 300.256 203.605 297.685 206.404Z" fill="white"/>
<path d="M369.491 192.391V203.719H364.999C360.507 203.719 356.991 204.923 354.452 207.332C351.946 209.708 350.692 213.257 350.692 217.977V242H338.485V192.684H350.009L350.692 199.91C351.767 197.404 353.459 195.418 355.771 193.953C358.082 192.456 360.849 191.707 364.071 191.707C365.829 191.707 367.636 191.935 369.491 192.391Z" fill="white"/>
<path d="M378.847 182.723C376.763 182.723 374.989 182.007 373.524 180.574C372.06 179.109 371.327 177.352 371.327 175.301C371.327 173.25 372.043 171.525 373.476 170.125C374.94 168.693 376.731 167.977 378.847 167.977C380.865 167.977 382.574 168.693 383.974 170.125C385.406 171.525 386.122 173.25 386.122 175.301C386.122 177.352 385.406 179.109 383.974 180.574C382.574 182.007 380.865 182.723 378.847 182.723ZM372.743 242V192.586H384.95V242H372.743Z" fill="white"/>
<path d="M404.755 242H392.548V192.586H403.827L404.853 198.982C406.382 196.508 408.547 194.588 411.347 193.221C414.179 191.821 417.287 191.121 420.673 191.121C426.793 191.121 431.448 192.911 434.638 196.492C437.86 200.073 439.472 205.102 439.472 211.58V242H427.265V214.51C427.265 210.473 426.337 207.413 424.481 205.33C422.659 203.247 420.119 202.205 416.864 202.205C413.121 202.205 410.159 203.393 407.978 205.77C405.829 208.146 404.755 211.352 404.755 215.389V242Z" fill="white"/>
<path d="M443.554 217.195C443.554 209.546 445.832 203.296 450.39 198.445C454.979 193.562 460.92 191.121 468.212 191.121C474.95 191.121 480.468 192.863 484.765 196.346C489.094 199.829 491.584 204.549 492.235 210.506H480.028C479.312 207.739 477.978 205.639 476.024 204.207C474.104 202.742 471.679 202.01 468.749 202.01C464.81 202.01 461.653 203.393 459.276 206.16C456.9 208.895 455.712 212.573 455.712 217.195C455.712 221.85 456.835 225.529 459.081 228.23C461.36 230.932 464.452 232.283 468.358 232.283C471.418 232.283 473.957 231.567 475.976 230.135C478.026 228.67 479.377 226.587 480.028 223.885H492.333C491.584 229.679 488.996 234.367 484.569 237.947C480.175 241.528 474.771 243.318 468.358 243.318C460.871 243.318 454.866 240.942 450.341 236.189C445.816 231.404 443.554 225.073 443.554 217.195Z" fill="white"/>
<path d="M502.519 182.723C500.435 182.723 498.661 182.007 497.196 180.574C495.731 179.109 494.999 177.352 494.999 175.301C494.999 173.25 495.715 171.525 497.147 170.125C498.612 168.693 500.403 167.977 502.519 167.977C504.537 167.977 506.246 168.693 507.646 170.125C509.078 171.525 509.794 173.25 509.794 175.301C509.794 177.352 509.078 179.109 507.646 180.574C506.246 182.007 504.537 182.723 502.519 182.723ZM496.415 242V192.586H508.622V242H496.415Z" fill="white"/>
<path d="M516.22 264.9V192.586H527.499L528.329 200.105C529.794 197.273 532.04 195.076 535.067 193.514C538.095 191.919 541.513 191.121 545.321 191.121C552.287 191.121 557.87 193.449 562.069 198.104C566.301 202.758 568.417 208.96 568.417 216.707C568.417 224.585 566.366 230.997 562.265 235.945C558.163 240.861 552.515 243.318 545.321 243.318C541.578 243.318 538.209 242.618 535.214 241.219C532.219 239.819 529.957 237.882 528.427 235.408V264.9H516.22ZM532.333 206.404C529.794 209.204 528.524 212.833 528.524 217.293C528.524 221.753 529.794 225.366 532.333 228.133C534.905 230.9 538.274 232.283 542.44 232.283C546.672 232.283 550.009 230.9 552.45 228.133C554.892 225.366 556.112 221.753 556.112 217.293C556.112 212.801 554.892 209.171 552.45 206.404C550.009 203.605 546.672 202.205 542.44 202.205C538.274 202.205 534.905 203.605 532.333 206.404Z" fill="white"/>
<path d="M585.438 242H573.329V167.586H585.438V242Z" fill="white"/>
<path d="M615.351 243.318C607.994 243.318 601.988 240.893 597.333 236.043C592.678 231.193 590.351 224.943 590.351 217.293C590.351 209.546 592.629 203.247 597.187 198.396C601.744 193.546 607.652 191.121 614.911 191.121C622.3 191.121 628.176 193.416 632.538 198.006C636.933 202.563 639.13 208.699 639.13 216.414V220.076L601.923 220.223C602.802 228.947 607.343 233.309 615.546 233.309C618.866 233.309 621.601 232.674 623.749 231.404C625.897 230.135 627.33 228.328 628.046 225.984H639.325C638.284 231.388 635.631 235.636 631.366 238.729C627.134 241.788 621.796 243.318 615.351 243.318ZM615.009 201.082C611.428 201.082 608.547 202.042 606.366 203.963C604.218 205.883 602.834 208.699 602.216 212.41H627.021C627.021 208.992 625.93 206.258 623.749 204.207C621.568 202.124 618.655 201.082 615.009 201.082Z" fill="white"/>
<path d="M640.087 227.01H651.708C651.773 229.191 652.571 230.9 654.101 232.137C655.663 233.374 657.828 233.992 660.595 233.992C663.427 233.992 665.591 233.471 667.089 232.43C668.619 231.355 669.384 229.907 669.384 228.084C669.384 226.749 668.961 225.659 668.114 224.812C667.268 223.934 665.803 223.266 663.72 222.811L654.784 220.711C650.292 219.702 646.972 218.074 644.823 215.828C642.675 213.582 641.601 210.506 641.601 206.6C641.601 201.814 643.407 198.038 647.021 195.271C650.666 192.505 655.386 191.121 661.181 191.121C666.747 191.121 671.239 192.586 674.657 195.516C678.108 198.445 679.849 202.303 679.882 207.088H668.31C668.244 204.972 667.528 203.296 666.161 202.059C664.826 200.822 663.004 200.203 660.692 200.203C658.316 200.203 656.444 200.724 655.077 201.766C653.743 202.807 653.075 204.256 653.075 206.111C653.075 208.813 655.224 210.669 659.521 211.678L668.407 213.777C672.672 214.754 675.813 216.3 677.831 218.416C679.882 220.499 680.907 223.396 680.907 227.107C680.907 232.055 679.003 235.994 675.194 238.924C671.386 241.854 666.389 243.318 660.204 243.318C654.084 243.318 649.201 241.821 645.556 238.826C641.91 235.831 640.087 231.893 640.087 227.01Z" fill="white"/>
<path d="M250.829 335.945C245.881 331.095 243.407 324.845 243.407 317.195C243.407 309.546 245.881 303.312 250.829 298.494C255.777 293.644 262.092 291.219 269.774 291.219C277.457 291.219 283.772 293.644 288.72 298.494C293.7 303.312 296.19 309.546 296.19 317.195C296.19 324.845 293.7 331.095 288.72 335.945C283.772 340.796 277.457 343.221 269.774 343.221C262.092 343.221 255.777 340.796 250.829 335.945ZM259.521 306.307C256.884 309.074 255.565 312.703 255.565 317.195C255.565 321.688 256.884 325.333 259.521 328.133C262.157 330.9 265.575 332.283 269.774 332.283C273.974 332.283 277.392 330.9 280.028 328.133C282.665 325.333 283.983 321.688 283.983 317.195C283.983 312.703 282.665 309.074 280.028 306.307C277.392 303.507 273.974 302.107 269.774 302.107C265.575 302.107 262.157 303.507 259.521 306.307Z" fill="white"/>
<path d="M295.78 292.586H302.86V286.58C302.86 280.135 304.423 275.366 307.548 272.273C310.705 269.148 315.084 267.586 320.683 267.586C322.961 267.586 325.061 267.765 326.981 268.123V278.523H322.685C319.755 278.523 317.737 279.207 316.63 280.574C315.523 281.909 314.97 283.911 314.97 286.58V292.586H326.786V302.791H314.97V342H302.86V302.791H295.78V292.586Z" fill="white"/>
<path d="M363.71 342H351.503V292.586H362.782L363.808 298.982C365.338 296.508 367.502 294.588 370.302 293.221C373.134 291.821 376.243 291.121 379.628 291.121C385.748 291.121 390.403 292.911 393.593 296.492C396.815 300.073 398.427 305.102 398.427 311.58V342H386.22V314.51C386.22 310.473 385.292 307.413 383.437 305.33C381.614 303.247 379.075 302.205 375.819 302.205C372.076 302.205 369.114 303.393 366.933 305.77C364.784 308.146 363.71 311.352 363.71 315.389V342Z" fill="white"/>
<path d="M409.931 335.945C404.983 331.095 402.509 324.845 402.509 317.195C402.509 309.546 404.983 303.312 409.931 298.494C414.879 293.644 421.194 291.219 428.876 291.219C436.558 291.219 442.873 293.644 447.821 298.494C452.802 303.312 455.292 309.546 455.292 317.195C455.292 324.845 452.802 331.095 447.821 335.945C442.873 340.796 436.558 343.221 428.876 343.221C421.194 343.221 414.879 340.796 409.931 335.945ZM418.622 306.307C415.985 309.074 414.667 312.703 414.667 317.195C414.667 321.688 415.985 325.333 418.622 328.133C421.259 330.9 424.677 332.283 428.876 332.283C433.075 332.283 436.493 330.9 439.13 328.133C441.767 325.333 443.085 321.688 443.085 317.195C443.085 312.703 441.767 309.074 439.13 306.307C436.493 303.507 433.075 302.107 428.876 302.107C424.677 302.107 421.259 303.507 418.622 306.307Z" fill="white"/>
<path d="M474.657 343.318C469.449 343.318 465.331 341.919 462.304 339.119C459.276 336.32 457.763 332.576 457.763 327.889C457.763 323.331 459.341 319.686 462.499 316.951C465.689 314.217 470.214 312.638 476.073 312.215L490.868 311.092V310.018C490.868 303.735 487.466 300.594 480.663 300.594C477.082 300.594 474.315 301.31 472.362 302.742C470.442 304.174 469.481 306.193 469.481 308.797H459.081C459.081 303.458 461.099 299.178 465.136 295.955C469.172 292.732 474.543 291.121 481.249 291.121C487.987 291.121 493.261 292.911 497.069 296.492C500.878 300.073 502.782 305.249 502.782 312.02V342H492.04L491.161 334.676C490.119 337.215 488.069 339.298 485.009 340.926C481.949 342.521 478.498 343.318 474.657 343.318ZM478.661 334.09C482.437 334.09 485.432 333.016 487.646 330.867C489.859 328.719 490.966 325.757 490.966 321.98V319.393L480.663 320.223C476.952 320.548 474.267 321.313 472.606 322.518C470.979 323.689 470.165 325.317 470.165 327.4C470.165 331.86 472.997 334.09 478.661 334.09Z" fill="white"/>
<path d="M540.751 292.391V303.719H536.259C531.767 303.719 528.251 304.923 525.712 307.332C523.205 309.708 521.952 313.257 521.952 317.977V342H509.745V292.684H521.269L521.952 299.91C523.026 297.404 524.719 295.418 527.03 293.953C529.341 292.456 532.108 291.707 535.331 291.707C537.089 291.707 538.896 291.935 540.751 292.391Z" fill="white"/>
</g>
<mask id="mask4_1725_3142" style="mask-type:alpha" maskUnits="userSpaceOnUse" x="280" y="280" width="244" height="244">
<circle cx="402" cy="402" r="122" fill="#101010"/>
</mask>
<g mask="url(#mask4_1725_3142)">
<circle cx="402" cy="402" r="122" fill="#101010"/>
<path d="M142.88 242H130.673V202.791H121.2V192.586H130.673V177.205H142.88V192.586H152.499V202.791H142.88V242Z" fill="white"/>
<path d="M167.274 242H155.067V167.586H167.372V198.982C168.935 196.541 171.116 194.62 173.915 193.221C176.747 191.821 179.905 191.121 183.388 191.121C189.41 191.121 194.016 192.911 197.206 196.492C200.396 200.073 201.991 205.102 201.991 211.58V242H189.784V214.51C189.784 210.473 188.856 207.413 187.001 205.33C185.178 203.247 182.672 202.205 179.481 202.205C175.705 202.205 172.727 203.393 170.546 205.77C168.365 208.146 167.274 211.222 167.274 214.998V242Z" fill="white"/>
<path d="M231.073 243.318C223.716 243.318 217.711 240.893 213.056 236.043C208.401 231.193 206.073 224.943 206.073 217.293C206.073 209.546 208.352 203.247 212.909 198.396C217.466 193.546 223.375 191.121 230.634 191.121C238.023 191.121 243.899 193.416 248.261 198.006C252.655 202.563 254.853 208.699 254.853 216.414V220.076L217.646 220.223C218.524 228.947 223.065 233.309 231.269 233.309C234.589 233.309 237.323 232.674 239.472 231.404C241.62 230.135 243.052 228.328 243.769 225.984H255.048C254.006 231.388 251.353 235.636 247.089 238.729C242.857 241.788 237.519 243.318 231.073 243.318ZM230.731 201.082C227.151 201.082 224.27 202.042 222.089 203.963C219.94 205.883 218.557 208.699 217.938 212.41H242.743C242.743 208.992 241.653 206.258 239.472 204.207C237.291 202.124 234.377 201.082 230.731 201.082Z" fill="white"/>
<path d="M281.571 264.9V192.586H292.851L293.681 200.105C295.146 197.273 297.392 195.076 300.419 193.514C303.446 191.919 306.864 191.121 310.673 191.121C317.639 191.121 323.222 193.449 327.421 198.104C331.653 202.758 333.769 208.96 333.769 216.707C333.769 224.585 331.718 230.997 327.616 235.945C323.515 240.861 317.867 243.318 310.673 243.318C306.929 243.318 303.56 242.618 300.565 241.219C297.571 239.819 295.308 237.882 293.778 235.408V264.9H281.571ZM297.685 206.404C295.146 209.204 293.876 212.833 293.876 217.293C293.876 221.753 295.146 225.366 297.685 228.133C300.256 230.9 303.625 232.283 307.792 232.283C312.024 232.283 315.36 230.9 317.802 228.133C320.243 225.366 321.464 221.753 321.464 217.293C321.464 212.801 320.243 209.171 317.802 206.404C315.36 203.605 312.024 202.205 307.792 202.205C303.625 202.205 300.256 203.605 297.685 206.404Z" fill="white"/>
<path d="M369.491 192.391V203.719H364.999C360.507 203.719 356.991 204.923 354.452 207.332C351.946 209.708 350.692 213.257 350.692 217.977V242H338.485V192.684H350.009L350.692 199.91C351.767 197.404 353.459 195.418 355.771 193.953C358.082 192.456 360.849 191.707 364.071 191.707C365.829 191.707 367.636 191.935 369.491 192.391Z" fill="white"/>
<path d="M378.847 182.723C376.763 182.723 374.989 182.007 373.524 180.574C372.06 179.109 371.327 177.352 371.327 175.301C371.327 173.25 372.043 171.525 373.476 170.125C374.94 168.693 376.731 167.977 378.847 167.977C380.865 167.977 382.574 168.693 383.974 170.125C385.406 171.525 386.122 173.25 386.122 175.301C386.122 177.352 385.406 179.109 383.974 180.574C382.574 182.007 380.865 182.723 378.847 182.723ZM372.743 242V192.586H384.95V242H372.743Z" fill="white"/>
<path d="M404.755 242H392.548V192.586H403.827L404.853 198.982C406.382 196.508 408.547 194.588 411.347 193.221C414.179 191.821 417.287 191.121 420.673 191.121C426.793 191.121 431.448 192.911 434.638 196.492C437.86 200.073 439.472 205.102 439.472 211.58V242H427.265V214.51C427.265 210.473 426.337 207.413 424.481 205.33C422.659 203.247 420.119 202.205 416.864 202.205C413.121 202.205 410.159 203.393 407.978 205.77C405.829 208.146 404.755 211.352 404.755 215.389V242Z" fill="white"/>
<path d="M443.554 217.195C443.554 209.546 445.832 203.296 450.39 198.445C454.979 193.562 460.92 191.121 468.212 191.121C474.95 191.121 480.468 192.863 484.765 196.346C489.094 199.829 491.584 204.549 492.235 210.506H480.028C479.312 207.739 477.978 205.639 476.024 204.207C474.104 202.742 471.679 202.01 468.749 202.01C464.81 202.01 461.653 203.393 459.276 206.16C456.9 208.895 455.712 212.573 455.712 217.195C455.712 221.85 456.835 225.529 459.081 228.23C461.36 230.932 464.452 232.283 468.358 232.283C471.418 232.283 473.957 231.567 475.976 230.135C478.026 228.67 479.377 226.587 480.028 223.885H492.333C491.584 229.679 488.996 234.367 484.569 237.947C480.175 241.528 474.771 243.318 468.358 243.318C460.871 243.318 454.866 240.942 450.341 236.189C445.816 231.404 443.554 225.073 443.554 217.195Z" fill="white"/>
<path d="M502.519 182.723C500.435 182.723 498.661 182.007 497.196 180.574C495.731 179.109 494.999 177.352 494.999 175.301C494.999 173.25 495.715 171.525 497.147 170.125C498.612 168.693 500.403 167.977 502.519 167.977C504.537 167.977 506.246 168.693 507.646 170.125C509.078 171.525 509.794 173.25 509.794 175.301C509.794 177.352 509.078 179.109 507.646 180.574C506.246 182.007 504.537 182.723 502.519 182.723ZM496.415 242V192.586H508.622V242H496.415Z" fill="white"/>
<path d="M516.22 264.9V192.586H527.499L528.329 200.105C529.794 197.273 532.04 195.076 535.067 193.514C538.095 191.919 541.513 191.121 545.321 191.121C552.287 191.121 557.87 193.449 562.069 198.104C566.301 202.758 568.417 208.96 568.417 216.707C568.417 224.585 566.366 230.997 562.265 235.945C558.163 240.861 552.515 243.318 545.321 243.318C541.578 243.318 538.209 242.618 535.214 241.219C532.219 239.819 529.957 237.882 528.427 235.408V264.9H516.22ZM532.333 206.404C529.794 209.204 528.524 212.833 528.524 217.293C528.524 221.753 529.794 225.366 532.333 228.133C534.905 230.9 538.274 232.283 542.44 232.283C546.672 232.283 550.009 230.9 552.45 228.133C554.892 225.366 556.112 221.753 556.112 217.293C556.112 212.801 554.892 209.171 552.45 206.404C550.009 203.605 546.672 202.205 542.44 202.205C538.274 202.205 534.905 203.605 532.333 206.404Z" fill="white"/>
<path d="M585.438 242H573.329V167.586H585.438V242Z" fill="white"/>
<path d="M615.351 243.318C607.994 243.318 601.988 240.893 597.333 236.043C592.678 231.193 590.351 224.943 590.351 217.293C590.351 209.546 592.629 203.247 597.187 198.396C601.744 193.546 607.652 191.121 614.911 191.121C622.3 191.121 628.176 193.416 632.538 198.006C636.933 202.563 639.13 208.699 639.13 216.414V220.076L601.923 220.223C602.802 228.947 607.343 233.309 615.546 233.309C618.866 233.309 621.601 232.674 623.749 231.404C625.897 230.135 627.33 228.328 628.046 225.984H639.325C638.284 231.388 635.631 235.636 631.366 238.729C627.134 241.788 621.796 243.318 615.351 243.318ZM615.009 201.082C611.428 201.082 608.547 202.042 606.366 203.963C604.218 205.883 602.834 208.699 602.216 212.41H627.021C627.021 208.992 625.93 206.258 623.749 204.207C621.568 202.124 618.655 201.082 615.009 201.082Z" fill="white"/>
<path d="M640.087 227.01H651.708C651.773 229.191 652.571 230.9 654.101 232.137C655.663 233.374 657.828 233.992 660.595 233.992C663.427 233.992 665.591 233.471 667.089 232.43C668.619 231.355 669.384 229.907 669.384 228.084C669.384 226.749 668.961 225.659 668.114 224.812C667.268 223.934 665.803 223.266 663.72 222.811L654.784 220.711C650.292 219.702 646.972 218.074 644.823 215.828C642.675 213.582 641.601 210.506 641.601 206.6C641.601 201.814 643.407 198.038 647.021 195.271C650.666 192.505 655.386 191.121 661.181 191.121C666.747 191.121 671.239 192.586 674.657 195.516C678.108 198.445 679.849 202.303 679.882 207.088H668.31C668.244 204.972 667.528 203.296 666.161 202.059C664.826 200.822 663.004 200.203 660.692 200.203C658.316 200.203 656.444 200.724 655.077 201.766C653.743 202.807 653.075 204.256 653.075 206.111C653.075 208.813 655.224 210.669 659.521 211.678L668.407 213.777C672.672 214.754 675.813 216.3 677.831 218.416C679.882 220.499 680.907 223.396 680.907 227.107C680.907 232.055 679.003 235.994 675.194 238.924C671.386 241.854 666.389 243.318 660.204 243.318C654.084 243.318 649.201 241.821 645.556 238.826C641.91 235.831 640.087 231.893 640.087 227.01Z" fill="white"/>
<path d="M250.829 335.945C245.881 331.095 243.407 324.845 243.407 317.195C243.407 309.546 245.881 303.312 250.829 298.494C255.777 293.644 262.092 291.219 269.774 291.219C277.457 291.219 283.772 293.644 288.72 298.494C293.7 303.312 296.19 309.546 296.19 317.195C296.19 324.845 293.7 331.095 288.72 335.945C283.772 340.796 277.457 343.221 269.774 343.221C262.092 343.221 255.777 340.796 250.829 335.945ZM259.521 306.307C256.884 309.074 255.565 312.703 255.565 317.195C255.565 321.688 256.884 325.333 259.521 328.133C262.157 330.9 265.575 332.283 269.774 332.283C273.974 332.283 277.392 330.9 280.028 328.133C282.665 325.333 283.983 321.688 283.983 317.195C283.983 312.703 282.665 309.074 280.028 306.307C277.392 303.507 273.974 302.107 269.774 302.107C265.575 302.107 262.157 303.507 259.521 306.307Z" fill="white"/>
<path d="M295.78 292.586H302.86V286.58C302.86 280.135 304.423 275.366 307.548 272.273C310.705 269.148 315.084 267.586 320.683 267.586C322.961 267.586 325.061 267.765 326.981 268.123V278.523H322.685C319.755 278.523 317.737 279.207 316.63 280.574C315.523 281.909 314.97 283.911 314.97 286.58V292.586H326.786V302.791H314.97V342H302.86V302.791H295.78V292.586Z" fill="white"/>
<path d="M363.71 342H351.503V292.586H362.782L363.808 298.982C365.338 296.508 367.502 294.588 370.302 293.221C373.134 291.821 376.243 291.121 379.628 291.121C385.748 291.121 390.403 292.911 393.593 296.492C396.815 300.073 398.427 305.102 398.427 311.58V342H386.22V314.51C386.22 310.473 385.292 307.413 383.437 305.33C381.614 303.247 379.075 302.205 375.819 302.205C372.076 302.205 369.114 303.393 366.933 305.77C364.784 308.146 363.71 311.352 363.71 315.389V342Z" fill="white"/>
<path d="M409.931 335.945C404.983 331.095 402.509 324.845 402.509 317.195C402.509 309.546 404.983 303.312 409.931 298.494C414.879 293.644 421.194 291.219 428.876 291.219C436.558 291.219 442.873 293.644 447.821 298.494C452.802 303.312 455.292 309.546 455.292 317.195C455.292 324.845 452.802 331.095 447.821 335.945C442.873 340.796 436.558 343.221 428.876 343.221C421.194 343.221 414.879 340.796 409.931 335.945ZM418.622 306.307C415.985 309.074 414.667 312.703 414.667 317.195C414.667 321.688 415.985 325.333 418.622 328.133C421.259 330.9 424.677 332.283 428.876 332.283C433.075 332.283 436.493 330.9 439.13 328.133C441.767 325.333 443.085 321.688 443.085 317.195C443.085 312.703 441.767 309.074 439.13 306.307C436.493 303.507 433.075 302.107 428.876 302.107C424.677 302.107 421.259 303.507 418.622 306.307Z" fill="white"/>
<path d="M474.657 343.318C469.449 343.318 465.331 341.919 462.304 339.119C459.276 336.32 457.763 332.576 457.763 327.889C457.763 323.331 459.341 319.686 462.499 316.951C465.689 314.217 470.214 312.638 476.073 312.215L490.868 311.092V310.018C490.868 303.735 487.466 300.594 480.663 300.594C477.082 300.594 474.315 301.31 472.362 302.742C470.442 304.174 469.481 306.193 469.481 308.797H459.081C459.081 303.458 461.099 299.178 465.136 295.955C469.172 292.732 474.543 291.121 481.249 291.121C487.987 291.121 493.261 292.911 497.069 296.492C500.878 300.073 502.782 305.249 502.782 312.02V342H492.04L491.161 334.676C490.119 337.215 488.069 339.298 485.009 340.926C481.949 342.521 478.498 343.318 474.657 343.318ZM478.661 334.09C482.437 334.09 485.432 333.016 487.646 330.867C489.859 328.719 490.966 325.757 490.966 321.98V319.393L480.663 320.223C476.952 320.548 474.267 321.313 472.606 322.518C470.979 323.689 470.165 325.317 470.165 327.4C470.165 331.86 472.997 334.09 478.661 334.09Z" fill="white"/>
<path d="M540.751 292.391V303.719H536.259C531.767 303.719 528.251 304.923 525.712 307.332C523.205 309.708 521.952 313.257 521.952 317.977V342H509.745V292.684H521.269L521.952 299.91C523.026 297.404 524.719 295.418 527.03 293.953C529.341 292.456 532.108 291.707 535.331 291.707C537.089 291.707 538.896 291.935 540.751 292.391Z" fill="white"/>
<circle cx="402" cy="402" r="4" fill="white"/>
</g>
</svg>
